<?xml version="1.0" encoding="UTF-8" standalone="no"?>
<!DOCTYPE svg PUBLIC "-//W3C//DTD SVG 1.1//EN"
 "http://www.w3.org/Graphics/SVG/1.1/DTD/svg11.dtd">
<!-- Generated by graphviz version 2.38.0 (20140413.2041)
 -->
<!-- Title: Name: Bot_560
Born: 866, Generation: 3, Age: 597
Peak Energy: 1361, Children: 0, Brain Size: 9 Pages: 1 -->
<svg width="274pt" height="696pt"
 viewBox="0.00 0.00 274.00 696.30" xmlns="http://www.w3.org/2000/svg" xmlns:xlink="http://www.w3.org/1999/xlink">
<g id="graph0" class="graph" transform="scale(1 1) rotate(0) translate(4 692.299)">
<title>Name: Bot_560
Born: 866, Generation: 3, Age: 597
Peak Energy: 1361, Children: 0, Brain Size: 9</title>
<polygon fill="white" stroke="none" points="-4,4 -4,-692.299 270,-692.299 270,4 -4,4"/>
<text text-anchor="middle" x="133" y="-37.8" font-family="Times New Roman,serif" font-size="14.00">Name: Bot_560</text>
<text text-anchor="middle" x="133" y="-22.8" font-family="Times New Roman,serif" font-size="14.00">Born: 866, Generation: 3, Age: 597</text>
<text text-anchor="middle" x="133" y="-7.8" font-family="Times New Roman,serif" font-size="14.00">Peak Energy: 1361, Children: 0, Brain Size: 9</text>
<!-- launch
signal -->
<g id="node1" class="node"><title>launch
signal</title>
<ellipse fill="#dedede" stroke="#182ba6" cx="222.5" cy="-669.914" rx="27.6545" ry="18.2703"/>
<text text-anchor="middle" x="222.5" y="-672.514" font-family="Times New Roman,serif" font-size="8.00">launch</text>
<text text-anchor="middle" x="222.5" y="-663.514" font-family="Times New Roman,serif" font-size="8.00">signal</text>
</g>
<!-- has
signal
found
food -->
<g id="node4" class="node"><title>has
signal
found
food</title>
<ellipse fill="none" stroke="#a61835" cx="70.5" cy="-583.416" rx="27" ry="31.2258"/>
<text text-anchor="middle" x="70.5" y="-595.016" font-family="Times New Roman,serif" font-size="8.00">has</text>
<text text-anchor="middle" x="70.5" y="-586.016" font-family="Times New Roman,serif" font-size="8.00">signal</text>
<text text-anchor="middle" x="70.5" y="-577.016" font-family="Times New Roman,serif" font-size="8.00">found</text>
<text text-anchor="middle" x="70.5" y="-568.016" font-family="Times New Roman,serif" font-size="8.00">food</text>
</g>
<!-- launch
signal&#45;&gt;has
signal
found
food -->
<g id="edge1" class="edge"><title>launch
signal&#45;&gt;has
signal
found
food</title>
<path fill="none" stroke="#182ba6" d="M202.001,-657.518C176.738,-643.475 133.487,-619.431 103.519,-602.772"/>
<polygon fill="#182ba6" stroke="#182ba6" points="105.12,-599.657 94.6793,-597.858 101.719,-605.776 105.12,-599.657"/>
</g>
<!-- reproduce
possible -->
<g id="node2" class="node"><title>reproduce
possible</title>
<ellipse fill="none" stroke="#a61835" cx="122.5" cy="-226.154" rx="35.2113" ry="18.2703"/>
<text text-anchor="middle" x="122.5" y="-228.754" font-family="Times New Roman,serif" font-size="8.00">reproduce</text>
<text text-anchor="middle" x="122.5" y="-219.754" font-family="Times New Roman,serif" font-size="8.00">possible</text>
</g>
<!-- reproduce
possible&#45;&gt;launch
signal -->
<g id="edge3" class="edge"><title>reproduce
possible&#45;&gt;launch
signal</title>
<path fill="none" stroke="#a61835" d="M152.233,-236.276C181.71,-247.385 222.5,-269.265 222.5,-305.288 222.5,-584.416 222.5,-584.416 222.5,-584.416 222.5,-603.43 222.5,-624.849 222.5,-641.365"/>
<polygon fill="#a61835" stroke="#a61835" points="219,-641.436 222.5,-651.436 226,-641.436 219,-641.436"/>
<text text-anchor="middle" x="225" y="-433.406" font-family="Times New Roman,serif" font-size="8.00">F</text>
</g>
<!-- wait -->
<g id="node5" class="node"><title>wait</title>
<ellipse fill="none" stroke="#182ba6" cx="88.5" cy="-144.77" rx="27" ry="18"/>
<text text-anchor="middle" x="88.5" y="-142.87" font-family="Times New Roman,serif" font-size="8.00">wait</text>
</g>
<!-- reproduce
possible&#45;&gt;wait -->
<g id="edge2" class="edge"><title>reproduce
possible&#45;&gt;wait</title>
<path fill="none" stroke="#a61835" d="M115.123,-207.929C110.606,-197.384 104.738,-183.684 99.6617,-171.83"/>
<polygon fill="#a61835" stroke="#a61835" points="102.785,-170.232 95.6301,-162.417 96.3499,-172.988 102.785,-170.232"/>
<text text-anchor="middle" x="110" y="-183.37" font-family="Times New Roman,serif" font-size="8.00">T</text>
</g>
<!-- create
clone -->
<g id="node3" class="node"><title>create
clone</title>
<ellipse fill="none" stroke="#182ba6" cx="93.5" cy="-306.288" rx="27" ry="18.2703"/>
<text text-anchor="middle" x="93.5" y="-308.888" font-family="Times New Roman,serif" font-size="8.00">create</text>
<text text-anchor="middle" x="93.5" y="-299.888" font-family="Times New Roman,serif" font-size="8.00">clone</text>
</g>
<!-- create
clone&#45;&gt;reproduce
possible -->
<g id="edge4" class="edge"><title>create
clone&#45;&gt;reproduce
possible</title>
<path fill="none" stroke="#182ba6" d="M99.7926,-288.334C103.529,-278.267 108.35,-265.279 112.587,-253.861"/>
<polygon fill="#182ba6" stroke="#182ba6" points="115.921,-254.938 116.12,-244.345 109.359,-252.502 115.921,-254.938"/>
</g>
<!-- has
signal
found
food&#45;&gt;wait -->
<g id="edge6" class="edge"><title>has
signal
found
food&#45;&gt;wait</title>
<path fill="none" stroke="#a61835" d="M57.1145,-556.303C48.3457,-536.788 38.5,-509.172 38.5,-483.555 38.5,-483.555 38.5,-483.555 38.5,-225.154 38.5,-203.028 52.5789,-182.031 65.7951,-167.195"/>
<polygon fill="#a61835" stroke="#a61835" points="68.63,-169.291 72.9538,-159.618 63.5419,-164.483 68.63,-169.291"/>
<text text-anchor="middle" x="41" y="-351.637" font-family="Times New Roman,serif" font-size="8.00">F</text>
</g>
<!-- move
towards
target -->
<g id="node6" class="node"><title>move
towards
target</title>
<ellipse fill="none" stroke="#182ba6" cx="110.5" cy="-482.555" rx="30.3115" ry="25"/>
<text text-anchor="middle" x="110.5" y="-489.655" font-family="Times New Roman,serif" font-size="8.00">move</text>
<text text-anchor="middle" x="110.5" y="-480.655" font-family="Times New Roman,serif" font-size="8.00">towards</text>
<text text-anchor="middle" x="110.5" y="-471.655" font-family="Times New Roman,serif" font-size="8.00">target</text>
</g>
<!-- has
signal
found
food&#45;&gt;move
towards
target -->
<g id="edge5" class="edge"><title>has
signal
found
food&#45;&gt;move
towards
target</title>
<path fill="none" stroke="#a61835" d="M81.6422,-554.878C86.5791,-542.676 92.4182,-528.245 97.5481,-515.566"/>
<polygon fill="#a61835" stroke="#a61835" points="100.8,-516.861 101.306,-506.278 94.3107,-514.236 100.8,-516.861"/>
<text text-anchor="middle" x="96" y="-527.904" font-family="Times New Roman,serif" font-size="8.00">T</text>
</g>
<!-- signal
exists -->
<g id="node9" class="node"><title>signal
exists</title>
<ellipse fill="none" stroke="#a61835" cx="88.5" cy="-71.3848" rx="27" ry="18.2703"/>
<text text-anchor="middle" x="88.5" y="-73.9848" font-family="Times New Roman,serif" font-size="8.00">signal</text>
<text text-anchor="middle" x="88.5" y="-64.9848" font-family="Times New Roman,serif" font-size="8.00">exists</text>
</g>
<!-- wait&#45;&gt;signal
exists -->
<g id="edge7" class="edge"><title>wait&#45;&gt;signal
exists</title>
<path fill="none" stroke="#182ba6" d="M88.5,-126.489C88.5,-118.627 88.5,-109.124 88.5,-100.29"/>
<polygon fill="#182ba6" stroke="#182ba6" points="92.0001,-100.002 88.5,-90.0018 85.0001,-100.002 92.0001,-100.002"/>
</g>
<!-- target
nearby -->
<g id="node7" class="node"><title>target
nearby</title>
<ellipse fill="none" stroke="#a61835" cx="143.5" cy="-394.421" rx="28.0702" ry="18.2703"/>
<text text-anchor="middle" x="143.5" y="-397.021" font-family="Times New Roman,serif" font-size="8.00">target</text>
<text text-anchor="middle" x="143.5" y="-388.021" font-family="Times New Roman,serif" font-size="8.00">nearby</text>
</g>
<!-- move
towards
target&#45;&gt;target
nearby -->
<g id="edge8" class="edge"><title>move
towards
target&#45;&gt;target
nearby</title>
<path fill="none" stroke="#182ba6" d="M115.84,-457.951C118.107,-449.275 121.034,-439.46 124.5,-430.806 125.81,-427.535 127.343,-424.177 128.96,-420.893"/>
<polygon fill="#182ba6" stroke="#182ba6" points="132.094,-422.454 133.625,-411.971 125.89,-419.211 132.094,-422.454"/>
</g>
<!-- target
nearby&#45;&gt;move
towards
target -->
<g id="edge10" class="edge"><title>target
nearby&#45;&gt;move
towards
target</title>
<path fill="none" stroke="#a61835" d="M136.936,-412.553C132.958,-422.937 127.751,-436.527 123.012,-448.897"/>
<polygon fill="#a61835" stroke="#a61835" points="119.653,-447.882 119.343,-458.473 126.189,-450.387 119.653,-447.882"/>
<text text-anchor="middle" x="132" y="-433.406" font-family="Times New Roman,serif" font-size="8.00">F</text>
</g>
<!-- eat
nearby
plants -->
<g id="node8" class="node"><title>eat
nearby
plants</title>
<ellipse fill="none" stroke="#182ba6" cx="166.5" cy="-306.288" rx="28.0702" ry="25"/>
<text text-anchor="middle" x="166.5" y="-313.388" font-family="Times New Roman,serif" font-size="8.00">eat</text>
<text text-anchor="middle" x="166.5" y="-304.388" font-family="Times New Roman,serif" font-size="8.00">nearby</text>
<text text-anchor="middle" x="166.5" y="-295.388" font-family="Times New Roman,serif" font-size="8.00">plants</text>
</g>
<!-- target
nearby&#45;&gt;eat
nearby
plants -->
<g id="edge9" class="edge"><title>target
nearby&#45;&gt;eat
nearby
plants</title>
<path fill="none" stroke="#a61835" d="M148.154,-375.991C150.882,-365.775 154.418,-352.534 157.656,-340.407"/>
<polygon fill="#a61835" stroke="#a61835" points="161.084,-341.136 160.282,-330.572 154.321,-339.33 161.084,-341.136"/>
<text text-anchor="middle" x="158" y="-351.637" font-family="Times New Roman,serif" font-size="8.00">T</text>
</g>
<!-- eat
nearby
plants&#45;&gt;reproduce
possible -->
<g id="edge11" class="edge"><title>eat
nearby
plants&#45;&gt;reproduce
possible</title>
<path fill="none" stroke="#182ba6" d="M154.244,-283.523C148.925,-274.079 142.655,-262.944 137.097,-253.076"/>
<polygon fill="#182ba6" stroke="#182ba6" points="139.999,-251.095 132.042,-244.099 133.899,-254.53 139.999,-251.095"/>
</g>
<!-- signal
exists&#45;&gt;launch
signal -->
<g id="edge13" class="edge"><title>signal
exists&#45;&gt;launch
signal</title>
<path fill="none" stroke="#a61835" d="M115.754,-71.9051C164.253,-72.6259 260.5,-81.8562 260.5,-143.77 260.5,-584.416 260.5,-584.416 260.5,-584.416 260.5,-605.93 250.127,-628.028 240.221,-644.228"/>
<polygon fill="#a61835" stroke="#a61835" points="237.016,-642.738 234.523,-653.036 242.894,-646.54 237.016,-642.738"/>
<text text-anchor="middle" x="263" y="-351.637" font-family="Times New Roman,serif" font-size="8.00">F</text>
</g>
<!-- signal
exists&#45;&gt;has
signal
found
food -->
<g id="edge12" class="edge"><title>signal
exists&#45;&gt;has
signal
found
food</title>
<path fill="none" stroke="#a61835" d="M64.4536,-80.1752C38.3984,-90.3051 0.5,-110.72 0.5,-143.77 0.5,-483.555 0.5,-483.555 0.5,-483.555 0.5,-513.26 21.8106,-540.282 40.9152,-558.539"/>
<polygon fill="#a61835" stroke="#a61835" points="38.6076,-561.171 48.3516,-565.331 43.3286,-556.003 38.6076,-561.171"/>
<text text-anchor="middle" x="4" y="-304.388" font-family="Times New Roman,serif" font-size="8.00">T</text>
</g>
</g>
</svg>
