<?xml version="1.0" encoding="UTF-8" standalone="no"?>
<!DOCTYPE svg PUBLIC "-//W3C//DTD SVG 1.1//EN"
 "http://www.w3.org/Graphics/SVG/1.1/DTD/svg11.dtd">
<!-- Generated by graphviz version 2.38.0 (20140413.2041)
 -->
<!-- Title: Name: Bot_297
Born: 550, Generation: 5, Age: 119
Peak Energy: 720, Children: 3, Brain Size: 9 Pages: 1 -->
<svg width="267pt" height="623pt"
 viewBox="0.00 0.00 267.00 623.30" xmlns="http://www.w3.org/2000/svg" xmlns:xlink="http://www.w3.org/1999/xlink">
<g id="graph0" class="graph" transform="scale(1 1) rotate(0) translate(4 619.299)">
<title>Name: Bot_297
Born: 550, Generation: 5, Age: 119
Peak Energy: 720, Children: 3, Brain Size: 9</title>
<polygon fill="white" stroke="none" points="-4,4 -4,-619.299 263,-619.299 263,4 -4,4"/>
<text text-anchor="middle" x="129.5" y="-37.8" font-family="Times New Roman,serif" font-size="14.00">Name: Bot_297</text>
<text text-anchor="middle" x="129.5" y="-22.8" font-family="Times New Roman,serif" font-size="14.00">Born: 550, Generation: 5, Age: 119</text>
<text text-anchor="middle" x="129.5" y="-7.8" font-family="Times New Roman,serif" font-size="14.00">Peak Energy: 720, Children: 3, Brain Size: 9</text>
<!-- launch
signal -->
<g id="node1" class="node"><title>launch
signal</title>
<ellipse fill="#dedede" stroke="#182ba6" cx="116.977" cy="-596.914" rx="27.6545" ry="18.2703"/>
<text text-anchor="middle" x="116.977" y="-599.514" font-family="Times New Roman,serif" font-size="8.00">launch</text>
<text text-anchor="middle" x="116.977" y="-590.514" font-family="Times New Roman,serif" font-size="8.00">signal</text>
</g>
<!-- has
signal
found
food -->
<g id="node4" class="node"><title>has
signal
found
food</title>
<ellipse fill="none" stroke="#a61835" cx="116.977" cy="-510.416" rx="27" ry="31.2258"/>
<text text-anchor="middle" x="116.977" y="-522.016" font-family="Times New Roman,serif" font-size="8.00">has</text>
<text text-anchor="middle" x="116.977" y="-513.016" font-family="Times New Roman,serif" font-size="8.00">signal</text>
<text text-anchor="middle" x="116.977" y="-504.016" font-family="Times New Roman,serif" font-size="8.00">found</text>
<text text-anchor="middle" x="116.977" y="-495.016" font-family="Times New Roman,serif" font-size="8.00">food</text>
</g>
<!-- launch
signal&#45;&gt;has
signal
found
food -->
<g id="edge1" class="edge"><title>launch
signal&#45;&gt;has
signal
found
food</title>
<path fill="none" stroke="#182ba6" d="M116.977,-578.406C116.977,-570.596 116.977,-561.045 116.977,-551.628"/>
<polygon fill="#182ba6" stroke="#182ba6" points="120.478,-551.553 116.977,-541.553 113.478,-551.553 120.478,-551.553"/>
</g>
<!-- reproduce
possible -->
<g id="node2" class="node"><title>reproduce
possible</title>
<ellipse fill="none" stroke="#a61835" cx="209.977" cy="-153.154" rx="35.2113" ry="18.2703"/>
<text text-anchor="middle" x="209.977" y="-155.754" font-family="Times New Roman,serif" font-size="8.00">reproduce</text>
<text text-anchor="middle" x="209.977" y="-146.754" font-family="Times New Roman,serif" font-size="8.00">possible</text>
</g>
<!-- reproduce
possible&#45;&gt;launch
signal -->
<g id="edge3" class="edge"><title>reproduce
possible&#45;&gt;launch
signal</title>
<path fill="none" stroke="#a61835" d="M216.972,-171.212C222.74,-186.83 229.977,-210.724 229.977,-232.288 229.977,-511.416 229.977,-511.416 229.977,-511.416 229.977,-550.821 185.361,-574.068 152.199,-585.904"/>
<polygon fill="#a61835" stroke="#a61835" points="150.702,-582.714 142.337,-589.216 152.931,-589.35 150.702,-582.714"/>
<text text-anchor="middle" x="232.477" y="-360.406" font-family="Times New Roman,serif" font-size="8.00">F</text>
</g>
<!-- create
clone -->
<g id="node3" class="node"><title>create
clone</title>
<ellipse fill="none" stroke="#182ba6" cx="209.977" cy="-71.3848" rx="27" ry="18.2703"/>
<text text-anchor="middle" x="209.977" y="-73.9848" font-family="Times New Roman,serif" font-size="8.00">create</text>
<text text-anchor="middle" x="209.977" y="-64.9848" font-family="Times New Roman,serif" font-size="8.00">clone</text>
</g>
<!-- reproduce
possible&#45;&gt;create
clone -->
<g id="edge2" class="edge"><title>reproduce
possible&#45;&gt;create
clone</title>
<path fill="none" stroke="#a61835" d="M205.21,-134.647C203.887,-128.987 202.634,-122.653 201.977,-116.77 201.348,-111.128 201.716,-105.122 202.568,-99.4104"/>
<polygon fill="#a61835" stroke="#a61835" points="206.004,-100.079 204.512,-89.59 199.137,-98.7198 206.004,-100.079"/>
<text text-anchor="middle" x="205.477" y="-110.37" font-family="Times New Roman,serif" font-size="8.00">T</text>
</g>
<!-- create
clone&#45;&gt;reproduce
possible -->
<g id="edge4" class="edge"><title>create
clone&#45;&gt;reproduce
possible</title>
<path fill="none" stroke="#182ba6" d="M209.977,-90.0387C209.977,-100.047 209.977,-112.8 209.977,-124.143"/>
<polygon fill="#182ba6" stroke="#182ba6" points="206.478,-124.451 209.977,-134.451 213.478,-124.451 206.478,-124.451"/>
</g>
<!-- wait -->
<g id="node5" class="node"><title>wait</title>
<ellipse fill="none" stroke="#182ba6" cx="53.9774" cy="-409.555" rx="27" ry="18"/>
<text text-anchor="middle" x="53.9774" y="-407.655" font-family="Times New Roman,serif" font-size="8.00">wait</text>
</g>
<!-- has
signal
found
food&#45;&gt;wait -->
<g id="edge6" class="edge"><title>has
signal
found
food&#45;&gt;wait</title>
<path fill="none" stroke="#a61835" d="M101.404,-484.979C91.7484,-469.826 79.3828,-450.422 69.6991,-435.226"/>
<polygon fill="#a61835" stroke="#a61835" points="72.3903,-432.936 64.0645,-426.384 66.487,-436.698 72.3903,-432.936"/>
<text text-anchor="middle" x="88.4774" y="-454.904" font-family="Times New Roman,serif" font-size="8.00">F</text>
</g>
<!-- move
towards
target -->
<g id="node6" class="node"><title>move
towards
target</title>
<ellipse fill="none" stroke="#182ba6" cx="171.977" cy="-409.555" rx="30.3115" ry="25"/>
<text text-anchor="middle" x="171.977" y="-416.655" font-family="Times New Roman,serif" font-size="8.00">move</text>
<text text-anchor="middle" x="171.977" y="-407.655" font-family="Times New Roman,serif" font-size="8.00">towards</text>
<text text-anchor="middle" x="171.977" y="-398.655" font-family="Times New Roman,serif" font-size="8.00">target</text>
</g>
<!-- has
signal
found
food&#45;&gt;move
towards
target -->
<g id="edge5" class="edge"><title>has
signal
found
food&#45;&gt;move
towards
target</title>
<path fill="none" stroke="#a61835" d="M131.284,-483.7C138.474,-470.777 147.24,-455.021 154.792,-441.446"/>
<polygon fill="#a61835" stroke="#a61835" points="157.989,-442.898 159.792,-432.458 151.872,-439.495 157.989,-442.898"/>
<text text-anchor="middle" x="151.477" y="-454.904" font-family="Times New Roman,serif" font-size="8.00">T</text>
</g>
<!-- signal
exists -->
<g id="node9" class="node"><title>signal
exists</title>
<ellipse fill="none" stroke="#a61835" cx="53.9774" cy="-321.421" rx="27" ry="18.2703"/>
<text text-anchor="middle" x="53.9774" y="-324.021" font-family="Times New Roman,serif" font-size="8.00">signal</text>
<text text-anchor="middle" x="53.9774" y="-315.021" font-family="Times New Roman,serif" font-size="8.00">exists</text>
</g>
<!-- wait&#45;&gt;signal
exists -->
<g id="edge7" class="edge"><title>wait&#45;&gt;signal
exists</title>
<path fill="none" stroke="#182ba6" d="M53.9774,-391.538C53.9774,-379.777 53.9774,-363.866 53.9774,-350.274"/>
<polygon fill="#182ba6" stroke="#182ba6" points="57.4775,-349.995 53.9774,-339.995 50.4775,-349.995 57.4775,-349.995"/>
</g>
<!-- target
nearby -->
<g id="node7" class="node"><title>target
nearby</title>
<ellipse fill="none" stroke="#a61835" cx="173.977" cy="-321.421" rx="28.0702" ry="18.2703"/>
<text text-anchor="middle" x="173.977" y="-324.021" font-family="Times New Roman,serif" font-size="8.00">target</text>
<text text-anchor="middle" x="173.977" y="-315.021" font-family="Times New Roman,serif" font-size="8.00">nearby</text>
</g>
<!-- move
towards
target&#45;&gt;target
nearby -->
<g id="edge8" class="edge"><title>move
towards
target&#45;&gt;target
nearby</title>
<path fill="none" stroke="#182ba6" d="M170.102,-384.794C169.678,-376.279 169.481,-366.61 169.977,-357.806 170.12,-355.268 170.321,-352.632 170.556,-349.995"/>
<polygon fill="#182ba6" stroke="#182ba6" points="174.04,-350.335 171.592,-340.027 167.077,-349.611 174.04,-350.335"/>
</g>
<!-- target
nearby&#45;&gt;move
towards
target -->
<g id="edge10" class="edge"><title>target
nearby&#45;&gt;move
towards
target</title>
<path fill="none" stroke="#a61835" d="M173.569,-340.004C173.338,-349.941 173.042,-362.705 172.768,-374.519"/>
<polygon fill="#a61835" stroke="#a61835" points="169.268,-374.483 172.535,-384.562 176.266,-374.646 169.268,-374.483"/>
<text text-anchor="middle" x="176.477" y="-360.406" font-family="Times New Roman,serif" font-size="8.00">F</text>
</g>
<!-- eat
nearby
plants -->
<g id="node8" class="node"><title>eat
nearby
plants</title>
<ellipse fill="none" stroke="#182ba6" cx="173.977" cy="-233.288" rx="28.0702" ry="25"/>
<text text-anchor="middle" x="173.977" y="-240.388" font-family="Times New Roman,serif" font-size="8.00">eat</text>
<text text-anchor="middle" x="173.977" y="-231.388" font-family="Times New Roman,serif" font-size="8.00">nearby</text>
<text text-anchor="middle" x="173.977" y="-222.388" font-family="Times New Roman,serif" font-size="8.00">plants</text>
</g>
<!-- target
nearby&#45;&gt;eat
nearby
plants -->
<g id="edge9" class="edge"><title>target
nearby&#45;&gt;eat
nearby
plants</title>
<path fill="none" stroke="#a61835" d="M173.977,-302.991C173.977,-293.03 173.977,-280.192 173.977,-268.314"/>
<polygon fill="#a61835" stroke="#a61835" points="177.478,-268.22 173.977,-258.22 170.478,-268.22 177.478,-268.22"/>
<text text-anchor="middle" x="177.477" y="-278.637" font-family="Times New Roman,serif" font-size="8.00">T</text>
</g>
<!-- eat
nearby
plants&#45;&gt;reproduce
possible -->
<g id="edge11" class="edge"><title>eat
nearby
plants&#45;&gt;reproduce
possible</title>
<path fill="none" stroke="#182ba6" d="M184.197,-210.107C188.438,-200.903 193.392,-190.151 197.818,-180.545"/>
<polygon fill="#182ba6" stroke="#182ba6" points="201.015,-181.969 202.021,-171.422 194.658,-179.04 201.015,-181.969"/>
</g>
<!-- signal
exists&#45;&gt;launch
signal -->
<g id="edge13" class="edge"><title>signal
exists&#45;&gt;launch
signal</title>
<path fill="none" stroke="#a61835" d="M41.8311,-338.06C33.2945,-350.092 22.6037,-367.533 17.9774,-384.806 12.286,-406.056 12.2028,-413.076 17.9774,-434.304 32.8984,-489.153 72.7658,-543.572 97.1151,-573.162"/>
<polygon fill="#a61835" stroke="#a61835" points="94.4333,-575.411 103.538,-580.83 99.7994,-570.916 94.4333,-575.411"/>
<text text-anchor="middle" x="29.4774" y="-454.904" font-family="Times New Roman,serif" font-size="8.00">F</text>
</g>
<!-- signal
exists&#45;&gt;has
signal
found
food -->
<g id="edge12" class="edge"><title>signal
exists&#45;&gt;has
signal
found
food</title>
<path fill="none" stroke="#a61835" d="M65.064,-338.405C73.0598,-350.613 83.5381,-368.124 89.9774,-384.806 100.509,-412.091 107.362,-444.404 111.528,-469.288"/>
<polygon fill="#a61835" stroke="#a61835" points="108.119,-470.138 113.152,-479.461 115.032,-469.034 108.119,-470.138"/>
<text text-anchor="middle" x="108.477" y="-407.655" font-family="Times New Roman,serif" font-size="8.00">T</text>
</g>
</g>
</svg>
