<?xml version="1.0" encoding="UTF-8" standalone="no"?>
<!DOCTYPE svg PUBLIC "-//W3C//DTD SVG 1.1//EN"
 "http://www.w3.org/Graphics/SVG/1.1/DTD/svg11.dtd">
<!-- Generated by graphviz version 2.38.0 (20140413.2041)
 -->
<!-- Title: Name: Bot_21169
Born: 3603, Generation: 29, Age: 10000
Peak Energy: 29600, Children: 0, Brain Size: 11 Pages: 1 -->
<svg width="287pt" height="877pt"
 viewBox="0.00 0.00 287.00 877.29" xmlns="http://www.w3.org/2000/svg" xmlns:xlink="http://www.w3.org/1999/xlink">
<g id="graph0" class="graph" transform="scale(1 1) rotate(0) translate(4 873.294)">
<title>Name: Bot_21169
Born: 3603, Generation: 29, Age: 10000
Peak Energy: 29600, Children: 0, Brain Size: 11</title>
<polygon fill="white" stroke="none" points="-4,4 -4,-873.294 283,-873.294 283,4 -4,4"/>
<text text-anchor="middle" x="139.5" y="-37.8" font-family="Times New Roman,serif" font-size="14.00">Name: Bot_21169</text>
<text text-anchor="middle" x="139.5" y="-22.8" font-family="Times New Roman,serif" font-size="14.00">Born: 3603, Generation: 29, Age: 10000</text>
<text text-anchor="middle" x="139.5" y="-7.8" font-family="Times New Roman,serif" font-size="14.00">Peak Energy: 29600, Children: 0, Brain Size: 11</text>
<!-- launch
signal -->
<g id="node1" class="node"><title>launch
signal</title>
<ellipse fill="#dedede" stroke="#182ba6" cx="192" cy="-850.909" rx="27.6545" ry="18.2703"/>
<text text-anchor="middle" x="192" y="-853.509" font-family="Times New Roman,serif" font-size="8.00">launch</text>
<text text-anchor="middle" x="192" y="-844.509" font-family="Times New Roman,serif" font-size="8.00">signal</text>
</g>
<!-- has
signal
found
plant -->
<g id="node4" class="node"><title>has
signal
found
plant</title>
<ellipse fill="none" stroke="#a61835" cx="84" cy="-764.411" rx="27" ry="31.2258"/>
<text text-anchor="middle" x="84" y="-776.011" font-family="Times New Roman,serif" font-size="8.00">has</text>
<text text-anchor="middle" x="84" y="-767.011" font-family="Times New Roman,serif" font-size="8.00">signal</text>
<text text-anchor="middle" x="84" y="-758.011" font-family="Times New Roman,serif" font-size="8.00">found</text>
<text text-anchor="middle" x="84" y="-749.011" font-family="Times New Roman,serif" font-size="8.00">plant</text>
</g>
<!-- launch
signal&#45;&gt;has
signal
found
plant -->
<g id="edge1" class="edge"><title>launch
signal&#45;&gt;has
signal
found
plant</title>
<path fill="none" stroke="#182ba6" d="M174.648,-836.333C158.37,-823.597 133.679,-804.279 114.175,-789.02"/>
<polygon fill="#182ba6" stroke="#182ba6" points="116.206,-786.165 106.173,-782.759 111.892,-791.678 116.206,-786.165"/>
</g>
<!-- reproduce
possible -->
<g id="node2" class="node"><title>reproduce
possible</title>
<ellipse fill="none" stroke="#a61835" cx="127" cy="-312.652" rx="35.2113" ry="18.2703"/>
<text text-anchor="middle" x="127" y="-315.252" font-family="Times New Roman,serif" font-size="8.00">reproduce</text>
<text text-anchor="middle" x="127" y="-306.252" font-family="Times New Roman,serif" font-size="8.00">possible</text>
</g>
<!-- create
clone -->
<g id="node3" class="node"><title>create
clone</title>
<ellipse fill="none" stroke="#182ba6" cx="117" cy="-224.518" rx="27" ry="18.2703"/>
<text text-anchor="middle" x="117" y="-227.118" font-family="Times New Roman,serif" font-size="8.00">create</text>
<text text-anchor="middle" x="117" y="-218.118" font-family="Times New Roman,serif" font-size="8.00">clone</text>
</g>
<!-- reproduce
possible&#45;&gt;create
clone -->
<g id="edge2" class="edge"><title>reproduce
possible&#45;&gt;create
clone</title>
<path fill="none" stroke="#a61835" d="M124.976,-294.221C123.607,-282.43 121.77,-266.607 120.204,-253.118"/>
<polygon fill="#a61835" stroke="#a61835" points="123.651,-252.452 119.021,-242.923 116.697,-253.26 123.651,-252.452"/>
<text text-anchor="middle" x="125.5" y="-269.867" font-family="Times New Roman,serif" font-size="8.00">T</text>
</g>
<!-- set
random
target -->
<g id="node10" class="node"><title>set
random
target</title>
<ellipse fill="none" stroke="#182ba6" cx="192" cy="-224.518" rx="30.3115" ry="25"/>
<text text-anchor="middle" x="192" y="-231.618" font-family="Times New Roman,serif" font-size="8.00">set</text>
<text text-anchor="middle" x="192" y="-222.618" font-family="Times New Roman,serif" font-size="8.00">random</text>
<text text-anchor="middle" x="192" y="-213.618" font-family="Times New Roman,serif" font-size="8.00">target</text>
</g>
<!-- reproduce
possible&#45;&gt;set
random
target -->
<g id="edge3" class="edge"><title>reproduce
possible&#45;&gt;set
random
target</title>
<path fill="none" stroke="#a61835" d="M139.533,-295.044C148.27,-283.466 160.151,-267.722 170.398,-254.144"/>
<polygon fill="#a61835" stroke="#a61835" points="173.294,-256.117 176.524,-246.026 167.706,-251.9 173.294,-256.117"/>
<text text-anchor="middle" x="161.5" y="-269.867" font-family="Times New Roman,serif" font-size="8.00">F</text>
</g>
<!-- wait -->
<g id="node5" class="node"><title>wait</title>
<ellipse fill="none" stroke="#182ba6" cx="98" cy="-144.77" rx="27" ry="18"/>
<text text-anchor="middle" x="98" y="-142.87" font-family="Times New Roman,serif" font-size="8.00">wait</text>
</g>
<!-- create
clone&#45;&gt;wait -->
<g id="edge4" class="edge"><title>create
clone&#45;&gt;wait</title>
<path fill="none" stroke="#182ba6" d="M112.783,-206.263C110.356,-196.33 107.254,-183.636 104.518,-172.443"/>
<polygon fill="#182ba6" stroke="#182ba6" points="107.913,-171.592 102.14,-162.709 101.114,-173.254 107.913,-171.592"/>
</g>
<!-- has
signal
found
plant&#45;&gt;wait -->
<g id="edge6" class="edge"><title>has
signal
found
plant&#45;&gt;wait</title>
<path fill="none" stroke="#a61835" d="M74.2864,-735.228C68.3929,-715.647 62,-688.815 62,-664.55 62,-664.55 62,-664.55 62,-223.518 62,-204.179 71.2857,-184.429 80.4251,-169.674"/>
<polygon fill="#a61835" stroke="#a61835" points="83.4405,-171.459 86.0125,-161.181 77.5925,-167.612 83.4405,-171.459"/>
<text text-anchor="middle" x="64.5" y="-438.134" font-family="Times New Roman,serif" font-size="8.00">F</text>
</g>
<!-- eat
nearby
bots -->
<g id="node6" class="node"><title>eat
nearby
bots</title>
<ellipse fill="none" stroke="#182ba6" cx="118" cy="-663.55" rx="28.0702" ry="25"/>
<text text-anchor="middle" x="118" y="-670.65" font-family="Times New Roman,serif" font-size="8.00">eat</text>
<text text-anchor="middle" x="118" y="-661.65" font-family="Times New Roman,serif" font-size="8.00">nearby</text>
<text text-anchor="middle" x="118" y="-652.65" font-family="Times New Roman,serif" font-size="8.00">bots</text>
</g>
<!-- has
signal
found
plant&#45;&gt;eat
nearby
bots -->
<g id="edge5" class="edge"><title>has
signal
found
plant&#45;&gt;eat
nearby
bots</title>
<path fill="none" stroke="#a61835" d="M93.6521,-735.346C97.7728,-723.364 102.607,-709.309 106.877,-696.893"/>
<polygon fill="#a61835" stroke="#a61835" points="110.213,-697.953 110.156,-687.359 103.594,-695.677 110.213,-697.953"/>
<text text-anchor="middle" x="106.5" y="-708.899" font-family="Times New Roman,serif" font-size="8.00">T</text>
</g>
<!-- signal
exists -->
<g id="node9" class="node"><title>signal
exists</title>
<ellipse fill="none" stroke="#a61835" cx="98" cy="-71.3848" rx="27" ry="18.2703"/>
<text text-anchor="middle" x="98" y="-73.9848" font-family="Times New Roman,serif" font-size="8.00">signal</text>
<text text-anchor="middle" x="98" y="-64.9848" font-family="Times New Roman,serif" font-size="8.00">exists</text>
</g>
<!-- wait&#45;&gt;signal
exists -->
<g id="edge7" class="edge"><title>wait&#45;&gt;signal
exists</title>
<path fill="none" stroke="#182ba6" d="M98,-126.489C98,-118.627 98,-109.124 98,-100.29"/>
<polygon fill="#182ba6" stroke="#182ba6" points="101.5,-100.002 98,-90.0018 94.5001,-100.002 101.5,-100.002"/>
</g>
<!-- target
nearby -->
<g id="node7" class="node"><title>target
nearby</title>
<ellipse fill="none" stroke="#a61835" cx="127" cy="-575.416" rx="28.0702" ry="18.2703"/>
<text text-anchor="middle" x="127" y="-578.016" font-family="Times New Roman,serif" font-size="8.00">target</text>
<text text-anchor="middle" x="127" y="-569.016" font-family="Times New Roman,serif" font-size="8.00">nearby</text>
</g>
<!-- eat
nearby
bots&#45;&gt;target
nearby -->
<g id="edge8" class="edge"><title>eat
nearby
bots&#45;&gt;target
nearby</title>
<path fill="none" stroke="#182ba6" d="M118.871,-638.751C119.324,-630.232 120,-620.57 121,-611.801 121.29,-609.255 121.642,-606.614 122.028,-603.974"/>
<polygon fill="#182ba6" stroke="#182ba6" points="125.5,-604.43 123.63,-594.001 118.588,-603.32 125.5,-604.43"/>
</g>
<!-- target
nearby&#45;&gt;eat
nearby
bots -->
<g id="edge10" class="edge"><title>target
nearby&#45;&gt;eat
nearby
bots</title>
<path fill="none" stroke="#a61835" d="M125.163,-593.999C124.124,-603.936 122.791,-616.7 121.556,-628.514"/>
<polygon fill="#a61835" stroke="#a61835" points="118.065,-628.247 120.507,-638.557 125.027,-628.975 118.065,-628.247"/>
<text text-anchor="middle" x="125.5" y="-614.401" font-family="Times New Roman,serif" font-size="8.00">F</text>
</g>
<!-- eat
nearby
plants -->
<g id="node8" class="node"><title>eat
nearby
plants</title>
<ellipse fill="none" stroke="#182ba6" cx="127" cy="-487.283" rx="28.0702" ry="25"/>
<text text-anchor="middle" x="127" y="-494.383" font-family="Times New Roman,serif" font-size="8.00">eat</text>
<text text-anchor="middle" x="127" y="-485.383" font-family="Times New Roman,serif" font-size="8.00">nearby</text>
<text text-anchor="middle" x="127" y="-476.383" font-family="Times New Roman,serif" font-size="8.00">plants</text>
</g>
<!-- target
nearby&#45;&gt;eat
nearby
plants -->
<g id="edge9" class="edge"><title>target
nearby&#45;&gt;eat
nearby
plants</title>
<path fill="none" stroke="#a61835" d="M127,-556.986C127,-547.025 127,-534.186 127,-522.309"/>
<polygon fill="#a61835" stroke="#a61835" points="130.5,-522.215 127,-512.215 123.5,-522.215 130.5,-522.215"/>
<text text-anchor="middle" x="130.5" y="-532.632" font-family="Times New Roman,serif" font-size="8.00">T</text>
</g>
<!-- create
local
signal -->
<g id="node11" class="node"><title>create
local
signal</title>
<ellipse fill="none" stroke="#182ba6" cx="127" cy="-392.785" rx="27" ry="25"/>
<text text-anchor="middle" x="127" y="-399.885" font-family="Times New Roman,serif" font-size="8.00">create</text>
<text text-anchor="middle" x="127" y="-390.885" font-family="Times New Roman,serif" font-size="8.00">local</text>
<text text-anchor="middle" x="127" y="-381.885" font-family="Times New Roman,serif" font-size="8.00">signal</text>
</g>
<!-- eat
nearby
plants&#45;&gt;create
local
signal -->
<g id="edge11" class="edge"><title>eat
nearby
plants&#45;&gt;create
local
signal</title>
<path fill="none" stroke="#182ba6" d="M127,-462.462C127,-451.971 127,-439.448 127,-427.986"/>
<polygon fill="#182ba6" stroke="#182ba6" points="130.5,-427.846 127,-417.846 123.5,-427.847 130.5,-427.846"/>
</g>
<!-- signal
exists&#45;&gt;launch
signal -->
<g id="edge13" class="edge"><title>signal
exists&#45;&gt;launch
signal</title>
<path fill="none" stroke="#a61835" d="M125.175,-73.2652C168.895,-76.291 250,-89.2513 250,-143.77 250,-765.411 250,-765.411 250,-765.411 250,-790.488 232.421,-813.564 216.618,-829.242"/>
<polygon fill="#a61835" stroke="#a61835" points="213.977,-826.92 209.088,-836.32 218.772,-832.021 213.977,-826.92"/>
<text text-anchor="middle" x="252.5" y="-438.134" font-family="Times New Roman,serif" font-size="8.00">F</text>
</g>
<!-- signal
exists&#45;&gt;has
signal
found
plant -->
<g id="edge12" class="edge"><title>signal
exists&#45;&gt;has
signal
found
plant</title>
<path fill="none" stroke="#a61835" d="M75.7976,-82.2827C54.0004,-93.689 24,-114.673 24,-143.77 24,-664.55 24,-664.55 24,-664.55 24,-691.779 40.8403,-717.905 56.6775,-736.454"/>
<polygon fill="#a61835" stroke="#a61835" points="54.0777,-738.797 63.3514,-743.92 59.2968,-734.132 54.0777,-738.797"/>
<text text-anchor="middle" x="27.5" y="-390.885" font-family="Times New Roman,serif" font-size="8.00">T</text>
</g>
<!-- set
random
target&#45;&gt;launch
signal -->
<g id="edge14" class="edge"><title>set
random
target&#45;&gt;launch
signal</title>
<path fill="none" stroke="#182ba6" d="M192,-249.282C192,-266.579 192,-290.567 192,-311.652 192,-765.411 192,-765.411 192,-765.411 192,-784.425 192,-805.844 192,-822.36"/>
<polygon fill="#182ba6" stroke="#182ba6" points="188.5,-822.431 192,-832.431 195.5,-822.431 188.5,-822.431"/>
</g>
<!-- create
local
signal&#45;&gt;reproduce
possible -->
<g id="edge15" class="edge"><title>create
local
signal&#45;&gt;reproduce
possible</title>
<path fill="none" stroke="#182ba6" d="M127,-367.918C127,-359.495 127,-349.955 127,-341.249"/>
<polygon fill="#182ba6" stroke="#182ba6" points="130.5,-341.174 127,-331.174 123.5,-341.174 130.5,-341.174"/>
</g>
</g>
</svg>
