<?xml version="1.0" encoding="UTF-8" standalone="no"?>
<!DOCTYPE svg PUBLIC "-//W3C//DTD SVG 1.1//EN"
 "http://www.w3.org/Graphics/SVG/1.1/DTD/svg11.dtd">
<!-- Generated by graphviz version 2.38.0 (20140413.2041)
 -->
<!-- Title: Name: Bot_2425
Born: 1377, Generation: 11, Age: 128
Peak Energy: 2915, Children: 5, Brain Size: 9 Pages: 1 -->
<svg width="274pt" height="623pt"
 viewBox="0.00 0.00 274.00 623.30" xmlns="http://www.w3.org/2000/svg" xmlns:xlink="http://www.w3.org/1999/xlink">
<g id="graph0" class="graph" transform="scale(1 1) rotate(0) translate(4 619.299)">
<title>Name: Bot_2425
Born: 1377, Generation: 11, Age: 128
Peak Energy: 2915, Children: 5, Brain Size: 9</title>
<polygon fill="white" stroke="none" points="-4,4 -4,-619.299 270,-619.299 270,4 -4,4"/>
<text text-anchor="middle" x="133" y="-37.8" font-family="Times New Roman,serif" font-size="14.00">Name: Bot_2425</text>
<text text-anchor="middle" x="133" y="-22.8" font-family="Times New Roman,serif" font-size="14.00">Born: 1377, Generation: 11, Age: 128</text>
<text text-anchor="middle" x="133" y="-7.8" font-family="Times New Roman,serif" font-size="14.00">Peak Energy: 2915, Children: 5, Brain Size: 9</text>
<!-- launch
signal -->
<g id="node1" class="node"><title>launch
signal</title>
<ellipse fill="#dedede" stroke="#182ba6" cx="120.477" cy="-596.914" rx="27.6545" ry="18.2703"/>
<text text-anchor="middle" x="120.477" y="-599.514" font-family="Times New Roman,serif" font-size="8.00">launch</text>
<text text-anchor="middle" x="120.477" y="-590.514" font-family="Times New Roman,serif" font-size="8.00">signal</text>
</g>
<!-- has
signal
found
plant -->
<g id="node4" class="node"><title>has
signal
found
plant</title>
<ellipse fill="none" stroke="#a61835" cx="120.477" cy="-510.416" rx="27" ry="31.2258"/>
<text text-anchor="middle" x="120.477" y="-522.016" font-family="Times New Roman,serif" font-size="8.00">has</text>
<text text-anchor="middle" x="120.477" y="-513.016" font-family="Times New Roman,serif" font-size="8.00">signal</text>
<text text-anchor="middle" x="120.477" y="-504.016" font-family="Times New Roman,serif" font-size="8.00">found</text>
<text text-anchor="middle" x="120.477" y="-495.016" font-family="Times New Roman,serif" font-size="8.00">plant</text>
</g>
<!-- launch
signal&#45;&gt;has
signal
found
plant -->
<g id="edge1" class="edge"><title>launch
signal&#45;&gt;has
signal
found
plant</title>
<path fill="none" stroke="#182ba6" d="M120.477,-578.406C120.477,-570.596 120.477,-561.045 120.477,-551.628"/>
<polygon fill="#182ba6" stroke="#182ba6" points="123.978,-551.553 120.477,-541.553 116.978,-551.553 123.978,-551.553"/>
</g>
<!-- reproduce
possible -->
<g id="node2" class="node"><title>reproduce
possible</title>
<ellipse fill="none" stroke="#a61835" cx="213.477" cy="-153.154" rx="35.2113" ry="18.2703"/>
<text text-anchor="middle" x="213.477" y="-155.754" font-family="Times New Roman,serif" font-size="8.00">reproduce</text>
<text text-anchor="middle" x="213.477" y="-146.754" font-family="Times New Roman,serif" font-size="8.00">possible</text>
</g>
<!-- reproduce
possible&#45;&gt;launch
signal -->
<g id="edge3" class="edge"><title>reproduce
possible&#45;&gt;launch
signal</title>
<path fill="none" stroke="#a61835" d="M220.472,-171.212C226.24,-186.83 233.477,-210.724 233.477,-232.288 233.477,-511.416 233.477,-511.416 233.477,-511.416 233.477,-550.821 188.861,-574.068 155.699,-585.904"/>
<polygon fill="#a61835" stroke="#a61835" points="154.202,-582.714 145.837,-589.216 156.431,-589.35 154.202,-582.714"/>
<text text-anchor="middle" x="235.977" y="-360.406" font-family="Times New Roman,serif" font-size="8.00">F</text>
</g>
<!-- create
clone -->
<g id="node3" class="node"><title>create
clone</title>
<ellipse fill="none" stroke="#182ba6" cx="213.477" cy="-71.3848" rx="27" ry="18.2703"/>
<text text-anchor="middle" x="213.477" y="-73.9848" font-family="Times New Roman,serif" font-size="8.00">create</text>
<text text-anchor="middle" x="213.477" y="-64.9848" font-family="Times New Roman,serif" font-size="8.00">clone</text>
</g>
<!-- reproduce
possible&#45;&gt;create
clone -->
<g id="edge2" class="edge"><title>reproduce
possible&#45;&gt;create
clone</title>
<path fill="none" stroke="#a61835" d="M208.71,-134.647C207.387,-128.987 206.134,-122.653 205.477,-116.77 204.848,-111.128 205.216,-105.122 206.068,-99.4104"/>
<polygon fill="#a61835" stroke="#a61835" points="209.504,-100.079 208.012,-89.59 202.637,-98.7198 209.504,-100.079"/>
<text text-anchor="middle" x="208.977" y="-110.37" font-family="Times New Roman,serif" font-size="8.00">T</text>
</g>
<!-- create
clone&#45;&gt;reproduce
possible -->
<g id="edge4" class="edge"><title>create
clone&#45;&gt;reproduce
possible</title>
<path fill="none" stroke="#182ba6" d="M213.477,-90.0387C213.477,-100.047 213.477,-112.8 213.477,-124.143"/>
<polygon fill="#182ba6" stroke="#182ba6" points="209.978,-124.451 213.477,-134.451 216.978,-124.451 209.978,-124.451"/>
</g>
<!-- wait -->
<g id="node5" class="node"><title>wait</title>
<ellipse fill="none" stroke="#182ba6" cx="57.4774" cy="-409.555" rx="27" ry="18"/>
<text text-anchor="middle" x="57.4774" y="-407.655" font-family="Times New Roman,serif" font-size="8.00">wait</text>
</g>
<!-- has
signal
found
plant&#45;&gt;wait -->
<g id="edge6" class="edge"><title>has
signal
found
plant&#45;&gt;wait</title>
<path fill="none" stroke="#a61835" d="M104.904,-484.979C95.2484,-469.826 82.8828,-450.422 73.1991,-435.226"/>
<polygon fill="#a61835" stroke="#a61835" points="75.8903,-432.936 67.5645,-426.384 69.987,-436.698 75.8903,-432.936"/>
<text text-anchor="middle" x="91.9774" y="-454.904" font-family="Times New Roman,serif" font-size="8.00">F</text>
</g>
<!-- move
towards
target -->
<g id="node6" class="node"><title>move
towards
target</title>
<ellipse fill="none" stroke="#182ba6" cx="175.477" cy="-409.555" rx="30.3115" ry="25"/>
<text text-anchor="middle" x="175.477" y="-416.655" font-family="Times New Roman,serif" font-size="8.00">move</text>
<text text-anchor="middle" x="175.477" y="-407.655" font-family="Times New Roman,serif" font-size="8.00">towards</text>
<text text-anchor="middle" x="175.477" y="-398.655" font-family="Times New Roman,serif" font-size="8.00">target</text>
</g>
<!-- has
signal
found
plant&#45;&gt;move
towards
target -->
<g id="edge5" class="edge"><title>has
signal
found
plant&#45;&gt;move
towards
target</title>
<path fill="none" stroke="#a61835" d="M134.784,-483.7C141.974,-470.777 150.74,-455.021 158.292,-441.446"/>
<polygon fill="#a61835" stroke="#a61835" points="161.489,-442.898 163.292,-432.458 155.372,-439.495 161.489,-442.898"/>
<text text-anchor="middle" x="154.977" y="-454.904" font-family="Times New Roman,serif" font-size="8.00">T</text>
</g>
<!-- signal
exists -->
<g id="node9" class="node"><title>signal
exists</title>
<ellipse fill="none" stroke="#a61835" cx="57.4774" cy="-321.421" rx="27" ry="18.2703"/>
<text text-anchor="middle" x="57.4774" y="-324.021" font-family="Times New Roman,serif" font-size="8.00">signal</text>
<text text-anchor="middle" x="57.4774" y="-315.021" font-family="Times New Roman,serif" font-size="8.00">exists</text>
</g>
<!-- wait&#45;&gt;signal
exists -->
<g id="edge7" class="edge"><title>wait&#45;&gt;signal
exists</title>
<path fill="none" stroke="#182ba6" d="M57.4774,-391.538C57.4774,-379.777 57.4774,-363.866 57.4774,-350.274"/>
<polygon fill="#182ba6" stroke="#182ba6" points="60.9775,-349.995 57.4774,-339.995 53.9775,-349.995 60.9775,-349.995"/>
</g>
<!-- target
nearby -->
<g id="node7" class="node"><title>target
nearby</title>
<ellipse fill="none" stroke="#a61835" cx="177.477" cy="-321.421" rx="28.0702" ry="18.2703"/>
<text text-anchor="middle" x="177.477" y="-324.021" font-family="Times New Roman,serif" font-size="8.00">target</text>
<text text-anchor="middle" x="177.477" y="-315.021" font-family="Times New Roman,serif" font-size="8.00">nearby</text>
</g>
<!-- move
towards
target&#45;&gt;target
nearby -->
<g id="edge8" class="edge"><title>move
towards
target&#45;&gt;target
nearby</title>
<path fill="none" stroke="#182ba6" d="M173.602,-384.794C173.178,-376.279 172.981,-366.61 173.477,-357.806 173.62,-355.268 173.821,-352.632 174.056,-349.995"/>
<polygon fill="#182ba6" stroke="#182ba6" points="177.54,-350.335 175.092,-340.027 170.577,-349.611 177.54,-350.335"/>
</g>
<!-- target
nearby&#45;&gt;move
towards
target -->
<g id="edge10" class="edge"><title>target
nearby&#45;&gt;move
towards
target</title>
<path fill="none" stroke="#a61835" d="M177.069,-340.004C176.838,-349.941 176.542,-362.705 176.268,-374.519"/>
<polygon fill="#a61835" stroke="#a61835" points="172.768,-374.483 176.035,-384.562 179.766,-374.646 172.768,-374.483"/>
<text text-anchor="middle" x="179.977" y="-360.406" font-family="Times New Roman,serif" font-size="8.00">F</text>
</g>
<!-- eat
nearby
plants -->
<g id="node8" class="node"><title>eat
nearby
plants</title>
<ellipse fill="none" stroke="#182ba6" cx="177.477" cy="-233.288" rx="28.0702" ry="25"/>
<text text-anchor="middle" x="177.477" y="-240.388" font-family="Times New Roman,serif" font-size="8.00">eat</text>
<text text-anchor="middle" x="177.477" y="-231.388" font-family="Times New Roman,serif" font-size="8.00">nearby</text>
<text text-anchor="middle" x="177.477" y="-222.388" font-family="Times New Roman,serif" font-size="8.00">plants</text>
</g>
<!-- target
nearby&#45;&gt;eat
nearby
plants -->
<g id="edge9" class="edge"><title>target
nearby&#45;&gt;eat
nearby
plants</title>
<path fill="none" stroke="#a61835" d="M177.477,-302.991C177.477,-293.03 177.477,-280.192 177.477,-268.314"/>
<polygon fill="#a61835" stroke="#a61835" points="180.978,-268.22 177.477,-258.22 173.978,-268.22 180.978,-268.22"/>
<text text-anchor="middle" x="180.977" y="-278.637" font-family="Times New Roman,serif" font-size="8.00">T</text>
</g>
<!-- eat
nearby
plants&#45;&gt;reproduce
possible -->
<g id="edge11" class="edge"><title>eat
nearby
plants&#45;&gt;reproduce
possible</title>
<path fill="none" stroke="#182ba6" d="M187.697,-210.107C191.938,-200.903 196.892,-190.151 201.318,-180.545"/>
<polygon fill="#182ba6" stroke="#182ba6" points="204.515,-181.969 205.521,-171.422 198.158,-179.04 204.515,-181.969"/>
</g>
<!-- signal
exists&#45;&gt;launch
signal -->
<g id="edge13" class="edge"><title>signal
exists&#45;&gt;launch
signal</title>
<path fill="none" stroke="#a61835" d="M45.3311,-338.06C36.7945,-350.092 26.1037,-367.533 21.4774,-384.806 15.786,-406.056 15.7028,-413.076 21.4774,-434.304 36.3984,-489.153 76.2658,-543.572 100.615,-573.162"/>
<polygon fill="#a61835" stroke="#a61835" points="97.9333,-575.411 107.038,-580.83 103.299,-570.916 97.9333,-575.411"/>
<text text-anchor="middle" x="32.9774" y="-454.904" font-family="Times New Roman,serif" font-size="8.00">F</text>
</g>
<!-- signal
exists&#45;&gt;has
signal
found
plant -->
<g id="edge12" class="edge"><title>signal
exists&#45;&gt;has
signal
found
plant</title>
<path fill="none" stroke="#a61835" d="M68.564,-338.405C76.5598,-350.613 87.0381,-368.124 93.4774,-384.806 104.009,-412.091 110.862,-444.404 115.028,-469.288"/>
<polygon fill="#a61835" stroke="#a61835" points="111.619,-470.138 116.652,-479.461 118.532,-469.034 111.619,-470.138"/>
<text text-anchor="middle" x="111.977" y="-407.655" font-family="Times New Roman,serif" font-size="8.00">T</text>
</g>
</g>
</svg>
