<?xml version="1.0" encoding="UTF-8" standalone="no"?>
<!DOCTYPE svg PUBLIC "-//W3C//DTD SVG 1.1//EN"
 "http://www.w3.org/Graphics/SVG/1.1/DTD/svg11.dtd">
<!-- Generated by graphviz version 2.38.0 (20140413.2041)
 -->
<!-- Title: Name: Bot_26768
Born: 3222, Generation: 29, Age: 63
Peak Energy: 17729, Children: 7, Brain Size: 11 Pages: 1 -->
<svg width="287pt" height="723pt"
 viewBox="0.00 0.00 287.00 722.52" xmlns="http://www.w3.org/2000/svg" xmlns:xlink="http://www.w3.org/1999/xlink">
<g id="graph0" class="graph" transform="scale(1 1) rotate(0) translate(4 718.524)">
<title>Name: Bot_26768
Born: 3222, Generation: 29, Age: 63
Peak Energy: 17729, Children: 7, Brain Size: 11</title>
<polygon fill="white" stroke="none" points="-4,4 -4,-718.524 283,-718.524 283,4 -4,4"/>
<text text-anchor="middle" x="139.5" y="-37.8" font-family="Times New Roman,serif" font-size="14.00">Name: Bot_26768</text>
<text text-anchor="middle" x="139.5" y="-22.8" font-family="Times New Roman,serif" font-size="14.00">Born: 3222, Generation: 29, Age: 63</text>
<text text-anchor="middle" x="139.5" y="-7.8" font-family="Times New Roman,serif" font-size="14.00">Peak Energy: 17729, Children: 7, Brain Size: 11</text>
<!-- launch
signal -->
<g id="node1" class="node"><title>launch
signal</title>
<ellipse fill="#dedede" stroke="#182ba6" cx="124.5" cy="-696.139" rx="27.6545" ry="18.2703"/>
<text text-anchor="middle" x="124.5" y="-698.739" font-family="Times New Roman,serif" font-size="8.00">launch</text>
<text text-anchor="middle" x="124.5" y="-689.739" font-family="Times New Roman,serif" font-size="8.00">signal</text>
</g>
<!-- has
signal
found
plant -->
<g id="node4" class="node"><title>has
signal
found
plant</title>
<ellipse fill="none" stroke="#a61835" cx="124.5" cy="-609.642" rx="27" ry="31.2258"/>
<text text-anchor="middle" x="124.5" y="-621.242" font-family="Times New Roman,serif" font-size="8.00">has</text>
<text text-anchor="middle" x="124.5" y="-612.242" font-family="Times New Roman,serif" font-size="8.00">signal</text>
<text text-anchor="middle" x="124.5" y="-603.242" font-family="Times New Roman,serif" font-size="8.00">found</text>
<text text-anchor="middle" x="124.5" y="-594.242" font-family="Times New Roman,serif" font-size="8.00">plant</text>
</g>
<!-- launch
signal&#45;&gt;has
signal
found
plant -->
<g id="edge1" class="edge"><title>launch
signal&#45;&gt;has
signal
found
plant</title>
<path fill="none" stroke="#182ba6" d="M124.5,-677.631C124.5,-669.821 124.5,-660.27 124.5,-650.854"/>
<polygon fill="#182ba6" stroke="#182ba6" points="128,-650.778 124.5,-640.778 121,-650.778 128,-650.778"/>
</g>
<!-- reproduce
possible -->
<g id="node2" class="node"><title>reproduce
possible</title>
<ellipse fill="none" stroke="#a61835" cx="164.5" cy="-252.38" rx="35.2113" ry="18.2703"/>
<text text-anchor="middle" x="164.5" y="-254.98" font-family="Times New Roman,serif" font-size="8.00">reproduce</text>
<text text-anchor="middle" x="164.5" y="-245.98" font-family="Times New Roman,serif" font-size="8.00">possible</text>
</g>
<!-- create
clone -->
<g id="node3" class="node"><title>create
clone</title>
<ellipse fill="none" stroke="#182ba6" cx="217.5" cy="-164.246" rx="27" ry="18.2703"/>
<text text-anchor="middle" x="217.5" y="-166.846" font-family="Times New Roman,serif" font-size="8.00">create</text>
<text text-anchor="middle" x="217.5" y="-157.846" font-family="Times New Roman,serif" font-size="8.00">clone</text>
</g>
<!-- reproduce
possible&#45;&gt;create
clone -->
<g id="edge2" class="edge"><title>reproduce
possible&#45;&gt;create
clone</title>
<path fill="none" stroke="#a61835" d="M174.719,-234.772C182.467,-222.18 193.247,-204.662 202.047,-190.36"/>
<polygon fill="#a61835" stroke="#a61835" points="205.232,-191.862 207.492,-181.511 199.271,-188.193 205.232,-191.862"/>
<text text-anchor="middle" x="194" y="-209.595" font-family="Times New Roman,serif" font-size="8.00">T</text>
</g>
<!-- eat
nearby
bots -->
<g id="node11" class="node"><title>eat
nearby
bots</title>
<ellipse fill="none" stroke="#182ba6" cx="104.5" cy="-164.246" rx="28.0702" ry="25"/>
<text text-anchor="middle" x="104.5" y="-171.346" font-family="Times New Roman,serif" font-size="8.00">eat</text>
<text text-anchor="middle" x="104.5" y="-162.346" font-family="Times New Roman,serif" font-size="8.00">nearby</text>
<text text-anchor="middle" x="104.5" y="-153.346" font-family="Times New Roman,serif" font-size="8.00">bots</text>
</g>
<!-- reproduce
possible&#45;&gt;eat
nearby
bots -->
<g id="edge3" class="edge"><title>reproduce
possible&#45;&gt;eat
nearby
bots</title>
<path fill="none" stroke="#a61835" d="M152.931,-234.772C144.942,-223.303 134.106,-207.747 124.709,-194.257"/>
<polygon fill="#a61835" stroke="#a61835" points="127.374,-191.959 118.786,-185.754 121.63,-195.96 127.374,-191.959"/>
<text text-anchor="middle" x="141" y="-209.595" font-family="Times New Roman,serif" font-size="8.00">F</text>
</g>
<!-- eat
nearby
plants_2 -->
<g id="node10" class="node"><title>eat
nearby
plants_2</title>
<ellipse fill="none" stroke="#182ba6" cx="182.5" cy="-77.7487" rx="33.4697" ry="25"/>
<text text-anchor="middle" x="182.5" y="-84.8487" font-family="Times New Roman,serif" font-size="8.00">eat</text>
<text text-anchor="middle" x="182.5" y="-75.8487" font-family="Times New Roman,serif" font-size="8.00">nearby</text>
<text text-anchor="middle" x="182.5" y="-66.8487" font-family="Times New Roman,serif" font-size="8.00">plants_2</text>
</g>
<!-- create
clone&#45;&gt;eat
nearby
plants_2 -->
<g id="edge4" class="edge"><title>create
clone&#45;&gt;eat
nearby
plants_2</title>
<path fill="none" stroke="#182ba6" d="M210.417,-146.147C206.225,-136.025 200.778,-122.876 195.81,-110.882"/>
<polygon fill="#182ba6" stroke="#182ba6" points="199.022,-109.49 191.961,-101.591 192.555,-112.169 199.022,-109.49"/>
</g>
<!-- wait -->
<g id="node5" class="node"><title>wait</title>
<ellipse fill="none" stroke="#182ba6" cx="61.5" cy="-508.78" rx="27" ry="18"/>
<text text-anchor="middle" x="61.5" y="-506.88" font-family="Times New Roman,serif" font-size="8.00">wait</text>
</g>
<!-- has
signal
found
plant&#45;&gt;wait -->
<g id="edge6" class="edge"><title>has
signal
found
plant&#45;&gt;wait</title>
<path fill="none" stroke="#a61835" d="M108.927,-584.204C99.271,-569.052 86.9054,-549.647 77.2217,-534.451"/>
<polygon fill="#a61835" stroke="#a61835" points="79.9129,-532.162 71.5871,-525.609 74.0096,-535.923 79.9129,-532.162"/>
<text text-anchor="middle" x="96" y="-554.129" font-family="Times New Roman,serif" font-size="8.00">F</text>
</g>
<!-- move
towards
target -->
<g id="node6" class="node"><title>move
towards
target</title>
<ellipse fill="none" stroke="#182ba6" cx="179.5" cy="-508.78" rx="30.3115" ry="25"/>
<text text-anchor="middle" x="179.5" y="-515.88" font-family="Times New Roman,serif" font-size="8.00">move</text>
<text text-anchor="middle" x="179.5" y="-506.88" font-family="Times New Roman,serif" font-size="8.00">towards</text>
<text text-anchor="middle" x="179.5" y="-497.88" font-family="Times New Roman,serif" font-size="8.00">target</text>
</g>
<!-- has
signal
found
plant&#45;&gt;move
towards
target -->
<g id="edge5" class="edge"><title>has
signal
found
plant&#45;&gt;move
towards
target</title>
<path fill="none" stroke="#a61835" d="M138.807,-582.925C145.996,-570.002 154.762,-554.246 162.314,-540.671"/>
<polygon fill="#a61835" stroke="#a61835" points="165.511,-542.124 167.315,-531.683 159.394,-538.721 165.511,-542.124"/>
<text text-anchor="middle" x="159" y="-554.129" font-family="Times New Roman,serif" font-size="8.00">T</text>
</g>
<!-- signal
exists -->
<g id="node9" class="node"><title>signal
exists</title>
<ellipse fill="none" stroke="#a61835" cx="101.5" cy="-420.647" rx="27" ry="18.2703"/>
<text text-anchor="middle" x="101.5" y="-423.247" font-family="Times New Roman,serif" font-size="8.00">signal</text>
<text text-anchor="middle" x="101.5" y="-414.247" font-family="Times New Roman,serif" font-size="8.00">exists</text>
</g>
<!-- wait&#45;&gt;signal
exists -->
<g id="edge7" class="edge"><title>wait&#45;&gt;signal
exists</title>
<path fill="none" stroke="#182ba6" d="M69.2124,-491.173C74.9305,-478.86 82.8365,-461.836 89.394,-447.715"/>
<polygon fill="#182ba6" stroke="#182ba6" points="92.6372,-449.041 93.6748,-438.497 86.2884,-446.093 92.6372,-449.041"/>
</g>
<!-- target
nearby -->
<g id="node7" class="node"><title>target
nearby</title>
<ellipse fill="none" stroke="#a61835" cx="174.5" cy="-420.647" rx="28.0702" ry="18.2703"/>
<text text-anchor="middle" x="174.5" y="-423.247" font-family="Times New Roman,serif" font-size="8.00">target</text>
<text text-anchor="middle" x="174.5" y="-414.247" font-family="Times New Roman,serif" font-size="8.00">nearby</text>
</g>
<!-- move
towards
target&#45;&gt;target
nearby -->
<g id="edge8" class="edge"><title>move
towards
target&#45;&gt;target
nearby</title>
<path fill="none" stroke="#182ba6" d="M172.3,-484.7C170.315,-476.081 168.858,-466.169 169.5,-457.032 169.679,-454.486 169.929,-451.846 170.224,-449.206"/>
<polygon fill="#182ba6" stroke="#182ba6" points="173.702,-449.601 171.519,-439.234 166.76,-448.7 173.702,-449.601"/>
</g>
<!-- target
nearby&#45;&gt;move
towards
target -->
<g id="edge10" class="edge"><title>target
nearby&#45;&gt;move
towards
target</title>
<path fill="none" stroke="#a61835" d="M175.521,-439.23C176.098,-449.167 176.838,-461.93 177.524,-473.744"/>
<polygon fill="#a61835" stroke="#a61835" points="174.033,-474.007 178.107,-483.787 181.022,-473.601 174.033,-474.007"/>
<text text-anchor="middle" x="179" y="-459.632" font-family="Times New Roman,serif" font-size="8.00">F</text>
</g>
<!-- eat
nearby
plants -->
<g id="node8" class="node"><title>eat
nearby
plants</title>
<ellipse fill="none" stroke="#182ba6" cx="164.5" cy="-332.513" rx="28.0702" ry="25"/>
<text text-anchor="middle" x="164.5" y="-339.613" font-family="Times New Roman,serif" font-size="8.00">eat</text>
<text text-anchor="middle" x="164.5" y="-330.613" font-family="Times New Roman,serif" font-size="8.00">nearby</text>
<text text-anchor="middle" x="164.5" y="-321.613" font-family="Times New Roman,serif" font-size="8.00">plants</text>
</g>
<!-- target
nearby&#45;&gt;eat
nearby
plants -->
<g id="edge9" class="edge"><title>target
nearby&#45;&gt;eat
nearby
plants</title>
<path fill="none" stroke="#a61835" d="M172.476,-402.216C171.32,-392.255 169.829,-379.417 168.45,-367.539"/>
<polygon fill="#a61835" stroke="#a61835" points="171.908,-366.975 167.279,-357.445 164.955,-367.782 171.908,-366.975"/>
<text text-anchor="middle" x="173" y="-377.862" font-family="Times New Roman,serif" font-size="8.00">T</text>
</g>
<!-- eat
nearby
plants&#45;&gt;reproduce
possible -->
<g id="edge11" class="edge"><title>eat
nearby
plants&#45;&gt;reproduce
possible</title>
<path fill="none" stroke="#182ba6" d="M164.5,-307.646C164.5,-299.223 164.5,-289.683 164.5,-280.977"/>
<polygon fill="#182ba6" stroke="#182ba6" points="168,-280.902 164.5,-270.902 161,-280.902 168,-280.902"/>
</g>
<!-- signal
exists&#45;&gt;has
signal
found
plant -->
<g id="edge12" class="edge"><title>signal
exists&#45;&gt;has
signal
found
plant</title>
<path fill="none" stroke="#a61835" d="M103.633,-438.986C107.238,-468.296 114.626,-528.366 119.573,-568.58"/>
<polygon fill="#a61835" stroke="#a61835" points="116.11,-569.1 120.805,-578.598 123.058,-568.245 116.11,-569.1"/>
<text text-anchor="middle" x="119" y="-506.88" font-family="Times New Roman,serif" font-size="8.00">T</text>
</g>
<!-- signal
exists&#45;&gt;eat
nearby
plants -->
<g id="edge13" class="edge"><title>signal
exists&#45;&gt;eat
nearby
plants</title>
<path fill="none" stroke="#a61835" d="M113.055,-403.849C121.586,-392.185 133.433,-375.988 143.607,-362.078"/>
<polygon fill="#a61835" stroke="#a61835" points="146.603,-363.91 149.682,-353.772 140.953,-359.777 146.603,-363.91"/>
<text text-anchor="middle" x="136" y="-377.862" font-family="Times New Roman,serif" font-size="8.00">F</text>
</g>
<!-- eat
nearby
plants_2&#45;&gt;reproduce
possible -->
<g id="edge14" class="edge"><title>eat
nearby
plants_2&#45;&gt;reproduce
possible</title>
<path fill="none" stroke="#182ba6" d="M180.012,-102.61C176.702,-134.354 170.863,-190.356 167.37,-223.852"/>
<polygon fill="#182ba6" stroke="#182ba6" points="163.881,-223.568 166.325,-233.877 170.843,-224.294 163.881,-223.568"/>
</g>
<!-- eat
nearby
bots&#45;&gt;signal
exists -->
<g id="edge15" class="edge"><title>eat
nearby
bots&#45;&gt;signal
exists</title>
<path fill="none" stroke="#182ba6" d="M104.215,-189.373C103.656,-236.813 102.416,-341.965 101.825,-392.066"/>
<polygon fill="#182ba6" stroke="#182ba6" points="98.3245,-392.12 101.706,-402.161 105.324,-392.203 98.3245,-392.12"/>
</g>
</g>
</svg>
