<?xml version="1.0" encoding="UTF-8" standalone="no"?>
<!DOCTYPE svg PUBLIC "-//W3C//DTD SVG 1.1//EN"
 "http://www.w3.org/Graphics/SVG/1.1/DTD/svg11.dtd">
<!-- Generated by graphviz version 2.38.0 (20140413.2041)
 -->
<!-- Title: Name: Bot_198
Born: 567, Generation: 2, Age: 13
Peak Energy: 553, Children: 2, Brain Size: 9 Pages: 1 -->
<svg width="571pt" height="623pt"
 viewBox="0.00 0.00 570.92 623.30" xmlns="http://www.w3.org/2000/svg" xmlns:xlink="http://www.w3.org/1999/xlink">
<g id="graph0" class="graph" transform="scale(1 1) rotate(0) translate(4 619.299)">
<title>Name: Bot_198
Born: 567, Generation: 2, Age: 13
Peak Energy: 553, Children: 2, Brain Size: 9</title>
<polygon fill="white" stroke="none" points="-4,4 -4,-619.299 566.916,-619.299 566.916,4 -4,4"/>
<text text-anchor="middle" x="281.458" y="-37.8" font-family="Times New Roman,serif" font-size="14.00">Name: Bot_198</text>
<text text-anchor="middle" x="281.458" y="-22.8" font-family="Times New Roman,serif" font-size="14.00">Born: 567, Generation: 2, Age: 13</text>
<text text-anchor="middle" x="281.458" y="-7.8" font-family="Times New Roman,serif" font-size="14.00">Peak Energy: 553, Children: 2, Brain Size: 9</text>
<!-- launch
signal -->
<g id="node1" class="node"><title>launch
signal</title>
<ellipse fill="#dedede" stroke="#182ba6" cx="231.963" cy="-597" rx="27.6545" ry="18.2703"/>
<text text-anchor="middle" x="231.963" y="-599.6" font-family="Times New Roman,serif" font-size="8.00">launch</text>
<text text-anchor="middle" x="231.963" y="-590.6" font-family="Times New Roman,serif" font-size="8.00">signal</text>
</g>
<!-- has
signal
found
plant -->
<g id="node4" class="node"><title>has
signal
found
plant</title>
<ellipse fill="none" stroke="#a61835" cx="231.963" cy="-510" rx="27" ry="31.2258"/>
<text text-anchor="middle" x="231.963" y="-521.6" font-family="Times New Roman,serif" font-size="8.00">has</text>
<text text-anchor="middle" x="231.963" y="-512.6" font-family="Times New Roman,serif" font-size="8.00">signal</text>
<text text-anchor="middle" x="231.963" y="-503.6" font-family="Times New Roman,serif" font-size="8.00">found</text>
<text text-anchor="middle" x="231.963" y="-494.6" font-family="Times New Roman,serif" font-size="8.00">plant</text>
</g>
<!-- launch
signal&#45;&gt;has
signal
found
plant -->
<g id="edge1" class="edge"><title>launch
signal&#45;&gt;has
signal
found
plant</title>
<path fill="none" stroke="#182ba6" d="M231.963,-578.388C231.963,-570.532 231.963,-560.923 231.963,-551.451"/>
<polygon fill="#182ba6" stroke="#182ba6" points="235.463,-551.316 231.963,-541.316 228.463,-551.316 235.463,-551.316"/>
</g>
<!-- reproduce
possible -->
<g id="node2" class="node"><title>reproduce
possible</title>
<ellipse fill="none" stroke="#a61835" cx="471.963" cy="-153" rx="35.2113" ry="18.2703"/>
<text text-anchor="middle" x="471.963" y="-155.6" font-family="Times New Roman,serif" font-size="8.00">reproduce</text>
<text text-anchor="middle" x="471.963" y="-146.6" font-family="Times New Roman,serif" font-size="8.00">possible</text>
</g>
<!-- reproduce
possible&#45;&gt;launch
signal -->
<g id="edge3" class="edge"><title>reproduce
possible&#45;&gt;launch
signal</title>
<path fill="none" stroke="#a61835" d="M489.515,-169.133C504.267,-183.618 522.963,-206.922 522.963,-232 522.963,-511 522.963,-511 522.963,-511 522.963,-563.259 347.857,-585.589 269.311,-592.977"/>
<polygon fill="#a61835" stroke="#a61835" points="268.982,-589.493 259.34,-593.883 269.616,-596.464 268.982,-589.493"/>
<text text-anchor="middle" x="525.463" y="-360.1" font-family="Times New Roman,serif" font-size="8.00">F</text>
</g>
<!-- create
clone -->
<g id="node3" class="node"><title>create
clone</title>
<ellipse fill="none" stroke="#182ba6" cx="471.963" cy="-71" rx="27" ry="18.2703"/>
<text text-anchor="middle" x="471.963" y="-73.6" font-family="Times New Roman,serif" font-size="8.00">create</text>
<text text-anchor="middle" x="471.963" y="-64.6" font-family="Times New Roman,serif" font-size="8.00">clone</text>
</g>
<!-- reproduce
possible&#45;&gt;create
clone -->
<g id="edge2" class="edge"><title>reproduce
possible&#45;&gt;create
clone</title>
<path fill="none" stroke="#a61835" d="M471.963,-134.245C471.963,-124.025 471.963,-110.963 471.963,-99.4461"/>
<polygon fill="#a61835" stroke="#a61835" points="475.463,-99.4297 471.963,-89.4297 468.463,-99.4297 475.463,-99.4297"/>
<text text-anchor="middle" x="475.463" y="-110.1" font-family="Times New Roman,serif" font-size="8.00">T</text>
</g>
<!-- create
clone&#45;&gt;reproduce
possible -->
<g id="edge4" class="edge"><title>create
clone&#45;&gt;reproduce
possible</title>
<path fill="none" stroke="#182ba6" d="M479.332,-88.7578C482.142,-97.0351 484.369,-107.215 482.963,-116.5 482.529,-119.371 481.907,-122.329 481.177,-125.256"/>
<polygon fill="#182ba6" stroke="#182ba6" points="477.802,-124.331 478.396,-134.909 484.528,-126.269 477.802,-124.331"/>
</g>
<!-- wait -->
<g id="node5" class="node"><title>wait</title>
<ellipse fill="none" stroke="#182ba6" cx="69.9633" cy="-410" rx="27" ry="18"/>
<text text-anchor="middle" x="69.9633" y="-408.1" font-family="Times New Roman,serif" font-size="8.00">wait</text>
</g>
<!-- has
signal
found
plant&#45;&gt;wait -->
<g id="edge6" class="edge"><title>has
signal
found
plant&#45;&gt;wait</title>
<path fill="none" stroke="#a61835" d="M208.407,-494.75C179.175,-477.066 129.376,-446.941 98.1479,-428.05"/>
<polygon fill="#a61835" stroke="#a61835" points="99.8482,-424.988 89.4804,-422.807 96.225,-430.977 99.8482,-424.988"/>
<text text-anchor="middle" x="153.463" y="-455.1" font-family="Times New Roman,serif" font-size="8.00">F</text>
</g>
<!-- move
towards
target -->
<g id="node6" class="node"><title>move
towards
target</title>
<ellipse fill="none" stroke="#182ba6" cx="373.963" cy="-410" rx="30.3115" ry="25"/>
<text text-anchor="middle" x="373.963" y="-417.1" font-family="Times New Roman,serif" font-size="8.00">move</text>
<text text-anchor="middle" x="373.963" y="-408.1" font-family="Times New Roman,serif" font-size="8.00">towards</text>
<text text-anchor="middle" x="373.963" y="-399.1" font-family="Times New Roman,serif" font-size="8.00">target</text>
</g>
<!-- has
signal
found
plant&#45;&gt;move
towards
target -->
<g id="edge5" class="edge"><title>has
signal
found
plant&#45;&gt;move
towards
target</title>
<path fill="none" stroke="#a61835" d="M254.778,-493.255C278.586,-476.824 316.079,-450.948 342.649,-432.611"/>
<polygon fill="#a61835" stroke="#a61835" points="344.963,-435.267 351.205,-426.706 340.987,-429.506 344.963,-435.267"/>
<text text-anchor="middle" x="315.463" y="-455.1" font-family="Times New Roman,serif" font-size="8.00">T</text>
</g>
<!-- signal
exists -->
<g id="node9" class="node"><title>signal
exists</title>
<ellipse fill="none" stroke="#a61835" cx="69.9633" cy="-321" rx="27" ry="18.2703"/>
<text text-anchor="middle" x="69.9633" y="-323.6" font-family="Times New Roman,serif" font-size="8.00">signal</text>
<text text-anchor="middle" x="69.9633" y="-314.6" font-family="Times New Roman,serif" font-size="8.00">exists</text>
</g>
<!-- wait&#45;&gt;signal
exists -->
<g id="edge7" class="edge"><title>wait&#45;&gt;signal
exists</title>
<path fill="none" stroke="#182ba6" d="M69.9633,-391.812C69.9633,-379.736 69.9633,-363.328 69.9633,-349.453"/>
<polygon fill="#182ba6" stroke="#182ba6" points="73.4634,-349.45 69.9633,-339.45 66.4634,-349.451 73.4634,-349.45"/>
</g>
<!-- target
nearby -->
<g id="node7" class="node"><title>target
nearby</title>
<ellipse fill="none" stroke="#a61835" cx="378.963" cy="-321" rx="28.0702" ry="18.2703"/>
<text text-anchor="middle" x="378.963" y="-323.6" font-family="Times New Roman,serif" font-size="8.00">target</text>
<text text-anchor="middle" x="378.963" y="-314.6" font-family="Times New Roman,serif" font-size="8.00">nearby</text>
</g>
<!-- move
towards
target&#45;&gt;target
nearby -->
<g id="edge8" class="edge"><title>move
towards
target&#45;&gt;target
nearby</title>
<path fill="none" stroke="#182ba6" d="M375.33,-385.227C375.961,-374.247 376.714,-361.139 377.371,-349.712"/>
<polygon fill="#182ba6" stroke="#182ba6" points="380.884,-349.581 377.963,-339.397 373.895,-349.179 380.884,-349.581"/>
</g>
<!-- target
nearby&#45;&gt;move
towards
target -->
<g id="edge10" class="edge"><title>target
nearby&#45;&gt;move
towards
target</title>
<path fill="none" stroke="#a61835" d="M387.222,-338.769C390.339,-347.049 392.749,-357.228 390.963,-366.5 390.297,-369.96 389.351,-373.497 388.243,-376.98"/>
<polygon fill="#a61835" stroke="#a61835" points="384.894,-375.95 384.787,-386.545 391.477,-378.329 384.894,-375.95"/>
<text text-anchor="middle" x="393.463" y="-360.1" font-family="Times New Roman,serif" font-size="8.00">F</text>
</g>
<!-- eat
nearby
plants -->
<g id="node8" class="node"><title>eat
nearby
plants</title>
<ellipse fill="none" stroke="#182ba6" cx="378.963" cy="-233" rx="28.0702" ry="25"/>
<text text-anchor="middle" x="378.963" y="-240.1" font-family="Times New Roman,serif" font-size="8.00">eat</text>
<text text-anchor="middle" x="378.963" y="-231.1" font-family="Times New Roman,serif" font-size="8.00">nearby</text>
<text text-anchor="middle" x="378.963" y="-222.1" font-family="Times New Roman,serif" font-size="8.00">plants</text>
</g>
<!-- target
nearby&#45;&gt;eat
nearby
plants -->
<g id="edge9" class="edge"><title>target
nearby&#45;&gt;eat
nearby
plants</title>
<path fill="none" stroke="#a61835" d="M378.963,-302.597C378.963,-292.651 378.963,-279.833 378.963,-267.973"/>
<polygon fill="#a61835" stroke="#a61835" points="382.463,-267.895 378.963,-257.895 375.463,-267.895 382.463,-267.895"/>
<text text-anchor="middle" x="382.463" y="-279.1" font-family="Times New Roman,serif" font-size="8.00">T</text>
</g>
<!-- eat
nearby
plants&#45;&gt;reproduce
possible -->
<g id="edge11" class="edge"><title>eat
nearby
plants&#45;&gt;reproduce
possible</title>
<path fill="none" stroke="#182ba6" d="M399.143,-215.075C412.936,-203.507 431.335,-188.075 446.188,-175.618"/>
<polygon fill="#182ba6" stroke="#182ba6" points="448.611,-178.154 454.023,-169.046 444.112,-172.791 448.611,-178.154"/>
</g>
<!-- signal
exists&#45;&gt;launch
signal -->
<g id="edge13" class="edge"><title>signal
exists&#45;&gt;launch
signal</title>
<path fill="none" stroke="#a61835" d="M57.8667,-337.449C42.0662,-359.641 18.1749,-401.529 33.9633,-434.749 68.5909,-507.608 154.028,-558.36 200.549,-581.622"/>
<polygon fill="#a61835" stroke="#a61835" points="199.06,-584.789 209.581,-586.036 202.134,-578.5 199.06,-584.789"/>
<text text-anchor="middle" x="51.4633" y="-455.1" font-family="Times New Roman,serif" font-size="8.00">F</text>
</g>
<!-- signal
exists&#45;&gt;has
signal
found
plant -->
<g id="edge12" class="edge"><title>signal
exists&#45;&gt;has
signal
found
plant</title>
<path fill="none" stroke="#a61835" d="M83.1464,-337.218C110.009,-368.226 171.492,-439.197 206.444,-479.543"/>
<polygon fill="#a61835" stroke="#a61835" points="203.87,-481.916 213.063,-487.183 209.16,-477.333 203.87,-481.916"/>
<text text-anchor="middle" x="171.463" y="-408.1" font-family="Times New Roman,serif" font-size="8.00">T</text>
</g>
</g>
</svg>
