<?xml version="1.0" encoding="UTF-8" standalone="no"?>
<!DOCTYPE svg PUBLIC "-//W3C//DTD SVG 1.1//EN"
 "http://www.w3.org/Graphics/SVG/1.1/DTD/svg11.dtd">
<!-- Generated by graphviz version 2.38.0 (20140413.2041)
 -->
<!-- Title: Name: Bot_554
Born: 721, Generation: 4, Age: 277
Peak Energy: 3269, Children: 0, Brain Size: 9 Pages: 1 -->
<svg width="274pt" height="623pt"
 viewBox="0.00 0.00 274.00 623.30" xmlns="http://www.w3.org/2000/svg" xmlns:xlink="http://www.w3.org/1999/xlink">
<g id="graph0" class="graph" transform="scale(1 1) rotate(0) translate(4 619.299)">
<title>Name: Bot_554
Born: 721, Generation: 4, Age: 277
Peak Energy: 3269, Children: 0, Brain Size: 9</title>
<polygon fill="white" stroke="none" points="-4,4 -4,-619.299 270,-619.299 270,4 -4,4"/>
<text text-anchor="middle" x="133" y="-37.8" font-family="Times New Roman,serif" font-size="14.00">Name: Bot_554</text>
<text text-anchor="middle" x="133" y="-22.8" font-family="Times New Roman,serif" font-size="14.00">Born: 721, Generation: 4, Age: 277</text>
<text text-anchor="middle" x="133" y="-7.8" font-family="Times New Roman,serif" font-size="14.00">Peak Energy: 3269, Children: 0, Brain Size: 9</text>
<!-- launch
signal -->
<g id="node1" class="node"><title>launch
signal</title>
<ellipse fill="#dedede" stroke="#182ba6" cx="122.477" cy="-596.914" rx="27.6545" ry="18.2703"/>
<text text-anchor="middle" x="122.477" y="-599.514" font-family="Times New Roman,serif" font-size="8.00">launch</text>
<text text-anchor="middle" x="122.477" y="-590.514" font-family="Times New Roman,serif" font-size="8.00">signal</text>
</g>
<!-- has
signal
found
plant -->
<g id="node4" class="node"><title>has
signal
found
plant</title>
<ellipse fill="none" stroke="#a61835" cx="122.477" cy="-510.416" rx="27" ry="31.2258"/>
<text text-anchor="middle" x="122.477" y="-522.016" font-family="Times New Roman,serif" font-size="8.00">has</text>
<text text-anchor="middle" x="122.477" y="-513.016" font-family="Times New Roman,serif" font-size="8.00">signal</text>
<text text-anchor="middle" x="122.477" y="-504.016" font-family="Times New Roman,serif" font-size="8.00">found</text>
<text text-anchor="middle" x="122.477" y="-495.016" font-family="Times New Roman,serif" font-size="8.00">plant</text>
</g>
<!-- launch
signal&#45;&gt;has
signal
found
plant -->
<g id="edge1" class="edge"><title>launch
signal&#45;&gt;has
signal
found
plant</title>
<path fill="none" stroke="#182ba6" d="M122.477,-578.406C122.477,-570.596 122.477,-561.045 122.477,-551.628"/>
<polygon fill="#182ba6" stroke="#182ba6" points="125.978,-551.553 122.477,-541.553 118.978,-551.553 125.978,-551.553"/>
</g>
<!-- reproduce
possible -->
<g id="node2" class="node"><title>reproduce
possible</title>
<ellipse fill="none" stroke="#a61835" cx="211.477" cy="-153.154" rx="35.2113" ry="18.2703"/>
<text text-anchor="middle" x="211.477" y="-155.754" font-family="Times New Roman,serif" font-size="8.00">reproduce</text>
<text text-anchor="middle" x="211.477" y="-146.754" font-family="Times New Roman,serif" font-size="8.00">possible</text>
</g>
<!-- reproduce
possible&#45;&gt;launch
signal -->
<g id="edge3" class="edge"><title>reproduce
possible&#45;&gt;launch
signal</title>
<path fill="none" stroke="#a61835" d="M218.472,-171.212C224.24,-186.83 231.477,-210.724 231.477,-232.288 231.477,-511.416 231.477,-511.416 231.477,-511.416 231.477,-549.715 188.924,-573.142 156.994,-585.33"/>
<polygon fill="#a61835" stroke="#a61835" points="155.706,-582.073 147.484,-588.755 158.079,-588.659 155.706,-582.073"/>
<text text-anchor="middle" x="233.977" y="-360.406" font-family="Times New Roman,serif" font-size="8.00">F</text>
</g>
<!-- create
clone -->
<g id="node3" class="node"><title>create
clone</title>
<ellipse fill="none" stroke="#182ba6" cx="211.477" cy="-71.3848" rx="27" ry="18.2703"/>
<text text-anchor="middle" x="211.477" y="-73.9848" font-family="Times New Roman,serif" font-size="8.00">create</text>
<text text-anchor="middle" x="211.477" y="-64.9848" font-family="Times New Roman,serif" font-size="8.00">clone</text>
</g>
<!-- reproduce
possible&#45;&gt;create
clone -->
<g id="edge2" class="edge"><title>reproduce
possible&#45;&gt;create
clone</title>
<path fill="none" stroke="#a61835" d="M206.71,-134.647C205.387,-128.987 204.134,-122.653 203.477,-116.77 202.848,-111.128 203.216,-105.122 204.068,-99.4104"/>
<polygon fill="#a61835" stroke="#a61835" points="207.504,-100.079 206.012,-89.59 200.637,-98.7198 207.504,-100.079"/>
<text text-anchor="middle" x="206.977" y="-110.37" font-family="Times New Roman,serif" font-size="8.00">T</text>
</g>
<!-- create
clone&#45;&gt;reproduce
possible -->
<g id="edge4" class="edge"><title>create
clone&#45;&gt;reproduce
possible</title>
<path fill="none" stroke="#182ba6" d="M211.477,-90.0387C211.477,-100.047 211.477,-112.8 211.477,-124.143"/>
<polygon fill="#182ba6" stroke="#182ba6" points="207.978,-124.451 211.477,-134.451 214.978,-124.451 207.978,-124.451"/>
</g>
<!-- wait -->
<g id="node5" class="node"><title>wait</title>
<ellipse fill="none" stroke="#182ba6" cx="59.4774" cy="-409.555" rx="27" ry="18"/>
<text text-anchor="middle" x="59.4774" y="-407.655" font-family="Times New Roman,serif" font-size="8.00">wait</text>
</g>
<!-- has
signal
found
plant&#45;&gt;wait -->
<g id="edge6" class="edge"><title>has
signal
found
plant&#45;&gt;wait</title>
<path fill="none" stroke="#a61835" d="M106.904,-484.979C97.2484,-469.826 84.8828,-450.422 75.1991,-435.226"/>
<polygon fill="#a61835" stroke="#a61835" points="77.8903,-432.936 69.5645,-426.384 71.987,-436.698 77.8903,-432.936"/>
<text text-anchor="middle" x="93.9774" y="-454.904" font-family="Times New Roman,serif" font-size="8.00">F</text>
</g>
<!-- eat
nearby
bots -->
<g id="node6" class="node"><title>eat
nearby
bots</title>
<ellipse fill="none" stroke="#182ba6" cx="175.477" cy="-409.555" rx="28.0702" ry="25"/>
<text text-anchor="middle" x="175.477" y="-416.655" font-family="Times New Roman,serif" font-size="8.00">eat</text>
<text text-anchor="middle" x="175.477" y="-407.655" font-family="Times New Roman,serif" font-size="8.00">nearby</text>
<text text-anchor="middle" x="175.477" y="-398.655" font-family="Times New Roman,serif" font-size="8.00">bots</text>
</g>
<!-- has
signal
found
plant&#45;&gt;eat
nearby
bots -->
<g id="edge5" class="edge"><title>has
signal
found
plant&#45;&gt;eat
nearby
bots</title>
<path fill="none" stroke="#a61835" d="M136.403,-483.442C143.33,-470.52 151.75,-454.813 158.998,-441.295"/>
<polygon fill="#a61835" stroke="#a61835" points="162.155,-442.813 163.795,-432.346 155.985,-439.506 162.155,-442.813"/>
<text text-anchor="middle" x="155.977" y="-454.904" font-family="Times New Roman,serif" font-size="8.00">T</text>
</g>
<!-- signal
exists -->
<g id="node9" class="node"><title>signal
exists</title>
<ellipse fill="none" stroke="#a61835" cx="59.4774" cy="-321.421" rx="27" ry="18.2703"/>
<text text-anchor="middle" x="59.4774" y="-324.021" font-family="Times New Roman,serif" font-size="8.00">signal</text>
<text text-anchor="middle" x="59.4774" y="-315.021" font-family="Times New Roman,serif" font-size="8.00">exists</text>
</g>
<!-- wait&#45;&gt;signal
exists -->
<g id="edge7" class="edge"><title>wait&#45;&gt;signal
exists</title>
<path fill="none" stroke="#182ba6" d="M59.4774,-391.538C59.4774,-379.777 59.4774,-363.866 59.4774,-350.274"/>
<polygon fill="#182ba6" stroke="#182ba6" points="62.9775,-349.995 59.4774,-339.995 55.9775,-349.995 62.9775,-349.995"/>
</g>
<!-- target
nearby -->
<g id="node7" class="node"><title>target
nearby</title>
<ellipse fill="none" stroke="#a61835" cx="175.477" cy="-321.421" rx="28.0702" ry="18.2703"/>
<text text-anchor="middle" x="175.477" y="-324.021" font-family="Times New Roman,serif" font-size="8.00">target</text>
<text text-anchor="middle" x="175.477" y="-315.021" font-family="Times New Roman,serif" font-size="8.00">nearby</text>
</g>
<!-- eat
nearby
bots&#45;&gt;target
nearby -->
<g id="edge8" class="edge"><title>eat
nearby
bots&#45;&gt;target
nearby</title>
<path fill="none" stroke="#182ba6" d="M173.877,-384.806C173.479,-376.292 173.229,-366.62 173.477,-357.806 173.546,-355.367 173.642,-352.835 173.754,-350.296"/>
<polygon fill="#182ba6" stroke="#182ba6" points="177.263,-350.219 174.284,-340.052 170.272,-349.857 177.263,-350.219"/>
</g>
<!-- target
nearby&#45;&gt;eat
nearby
bots -->
<g id="edge10" class="edge"><title>target
nearby&#45;&gt;eat
nearby
bots</title>
<path fill="none" stroke="#a61835" d="M175.477,-340.004C175.477,-349.941 175.477,-362.705 175.477,-374.519"/>
<polygon fill="#a61835" stroke="#a61835" points="171.978,-374.562 175.477,-384.562 178.978,-374.562 171.978,-374.562"/>
<text text-anchor="middle" x="177.977" y="-360.406" font-family="Times New Roman,serif" font-size="8.00">F</text>
</g>
<!-- eat
nearby
plants -->
<g id="node8" class="node"><title>eat
nearby
plants</title>
<ellipse fill="none" stroke="#182ba6" cx="175.477" cy="-233.288" rx="28.0702" ry="25"/>
<text text-anchor="middle" x="175.477" y="-240.388" font-family="Times New Roman,serif" font-size="8.00">eat</text>
<text text-anchor="middle" x="175.477" y="-231.388" font-family="Times New Roman,serif" font-size="8.00">nearby</text>
<text text-anchor="middle" x="175.477" y="-222.388" font-family="Times New Roman,serif" font-size="8.00">plants</text>
</g>
<!-- target
nearby&#45;&gt;eat
nearby
plants -->
<g id="edge9" class="edge"><title>target
nearby&#45;&gt;eat
nearby
plants</title>
<path fill="none" stroke="#a61835" d="M175.477,-302.991C175.477,-293.03 175.477,-280.192 175.477,-268.314"/>
<polygon fill="#a61835" stroke="#a61835" points="178.978,-268.22 175.477,-258.22 171.978,-268.22 178.978,-268.22"/>
<text text-anchor="middle" x="178.977" y="-278.637" font-family="Times New Roman,serif" font-size="8.00">T</text>
</g>
<!-- eat
nearby
plants&#45;&gt;reproduce
possible -->
<g id="edge11" class="edge"><title>eat
nearby
plants&#45;&gt;reproduce
possible</title>
<path fill="none" stroke="#182ba6" d="M185.697,-210.107C189.938,-200.903 194.892,-190.151 199.318,-180.545"/>
<polygon fill="#182ba6" stroke="#182ba6" points="202.515,-181.969 203.521,-171.422 196.158,-179.04 202.515,-181.969"/>
</g>
<!-- signal
exists&#45;&gt;launch
signal -->
<g id="edge13" class="edge"><title>signal
exists&#45;&gt;launch
signal</title>
<path fill="none" stroke="#a61835" d="M47.3311,-338.06C38.7945,-350.092 28.1037,-367.533 23.4774,-384.806 17.786,-406.056 17.7028,-413.076 23.4774,-434.304 38.3984,-489.153 78.2658,-543.572 102.615,-573.162"/>
<polygon fill="#a61835" stroke="#a61835" points="99.9333,-575.411 109.038,-580.83 105.299,-570.916 99.9333,-575.411"/>
<text text-anchor="middle" x="34.9774" y="-454.904" font-family="Times New Roman,serif" font-size="8.00">F</text>
</g>
<!-- signal
exists&#45;&gt;has
signal
found
plant -->
<g id="edge12" class="edge"><title>signal
exists&#45;&gt;has
signal
found
plant</title>
<path fill="none" stroke="#a61835" d="M70.564,-338.405C78.5598,-350.613 89.0381,-368.124 95.4774,-384.806 106.009,-412.091 112.862,-444.404 117.028,-469.288"/>
<polygon fill="#a61835" stroke="#a61835" points="113.619,-470.138 118.652,-479.461 120.532,-469.034 113.619,-470.138"/>
<text text-anchor="middle" x="113.977" y="-407.655" font-family="Times New Roman,serif" font-size="8.00">T</text>
</g>
</g>
</svg>
