<?xml version="1.0" encoding="UTF-8" standalone="no"?>
<!DOCTYPE svg PUBLIC "-//W3C//DTD SVG 1.1//EN"
 "http://www.w3.org/Graphics/SVG/1.1/DTD/svg11.dtd">
<!-- Generated by graphviz version 2.38.0 (20140413.2041)
 -->
<!-- Title: Name: Bot_108
Born: 561, Generation: 3, Age: 837
Peak Energy: 2463, Children: 0, Brain Size: 10 Pages: 1 -->
<svg width="280pt" height="710pt"
 viewBox="0.00 0.00 280.00 709.80" xmlns="http://www.w3.org/2000/svg" xmlns:xlink="http://www.w3.org/1999/xlink">
<g id="graph0" class="graph" transform="scale(1 1) rotate(0) translate(4 705.796)">
<title>Name: Bot_108
Born: 561, Generation: 3, Age: 837
Peak Energy: 2463, Children: 0, Brain Size: 10</title>
<polygon fill="white" stroke="none" points="-4,4 -4,-705.796 276,-705.796 276,4 -4,4"/>
<text text-anchor="middle" x="136" y="-37.8" font-family="Times New Roman,serif" font-size="14.00">Name: Bot_108</text>
<text text-anchor="middle" x="136" y="-22.8" font-family="Times New Roman,serif" font-size="14.00">Born: 561, Generation: 3, Age: 837</text>
<text text-anchor="middle" x="136" y="-7.8" font-family="Times New Roman,serif" font-size="14.00">Peak Energy: 2463, Children: 0, Brain Size: 10</text>
<!-- launch
signal -->
<g id="node1" class="node"><title>launch
signal</title>
<ellipse fill="#dedede" stroke="#182ba6" cx="126.822" cy="-683.411" rx="27.6545" ry="18.2703"/>
<text text-anchor="middle" x="126.822" y="-686.011" font-family="Times New Roman,serif" font-size="8.00">launch</text>
<text text-anchor="middle" x="126.822" y="-677.011" font-family="Times New Roman,serif" font-size="8.00">signal</text>
</g>
<!-- eat
nearby
bots -->
<g id="node10" class="node"><title>eat
nearby
bots</title>
<ellipse fill="none" stroke="#182ba6" cx="126.822" cy="-603.278" rx="28.0702" ry="25"/>
<text text-anchor="middle" x="126.822" y="-610.378" font-family="Times New Roman,serif" font-size="8.00">eat</text>
<text text-anchor="middle" x="126.822" y="-601.378" font-family="Times New Roman,serif" font-size="8.00">nearby</text>
<text text-anchor="middle" x="126.822" y="-592.378" font-family="Times New Roman,serif" font-size="8.00">bots</text>
</g>
<!-- launch
signal&#45;&gt;eat
nearby
bots -->
<g id="edge1" class="edge"><title>launch
signal&#45;&gt;eat
nearby
bots</title>
<path fill="none" stroke="#182ba6" d="M126.822,-664.682C126.822,-656.83 126.822,-647.321 126.822,-638.193"/>
<polygon fill="#182ba6" stroke="#182ba6" points="130.322,-638.158 126.822,-628.158 123.322,-638.158 130.322,-638.158"/>
</g>
<!-- reproduce
possible -->
<g id="node2" class="node"><title>reproduce
possible</title>
<ellipse fill="none" stroke="#a61835" cx="227.822" cy="-153.154" rx="35.2113" ry="18.2703"/>
<text text-anchor="middle" x="227.822" y="-155.754" font-family="Times New Roman,serif" font-size="8.00">reproduce</text>
<text text-anchor="middle" x="227.822" y="-146.754" font-family="Times New Roman,serif" font-size="8.00">possible</text>
</g>
<!-- reproduce
possible&#45;&gt;launch
signal -->
<g id="edge3" class="edge"><title>reproduce
possible&#45;&gt;launch
signal</title>
<path fill="none" stroke="#a61835" d="M234.817,-171.212C240.585,-186.83 247.822,-210.724 247.822,-232.288 247.822,-604.278 247.822,-604.278 247.822,-604.278 247.822,-645.017 198.817,-665.548 163.18,-675.092"/>
<polygon fill="#a61835" stroke="#a61835" points="161.936,-671.794 153.078,-677.606 163.627,-678.587 161.936,-671.794"/>
<text text-anchor="middle" x="250.322" y="-407.655" font-family="Times New Roman,serif" font-size="8.00">F</text>
</g>
<!-- create
clone -->
<g id="node3" class="node"><title>create
clone</title>
<ellipse fill="none" stroke="#182ba6" cx="227.822" cy="-71.3848" rx="27" ry="18.2703"/>
<text text-anchor="middle" x="227.822" y="-73.9848" font-family="Times New Roman,serif" font-size="8.00">create</text>
<text text-anchor="middle" x="227.822" y="-64.9848" font-family="Times New Roman,serif" font-size="8.00">clone</text>
</g>
<!-- reproduce
possible&#45;&gt;create
clone -->
<g id="edge2" class="edge"><title>reproduce
possible&#45;&gt;create
clone</title>
<path fill="none" stroke="#a61835" d="M223.055,-134.647C221.732,-128.987 220.479,-122.653 219.822,-116.77 219.193,-111.128 219.561,-105.122 220.413,-99.4104"/>
<polygon fill="#a61835" stroke="#a61835" points="223.848,-100.079 222.357,-89.59 216.982,-98.7198 223.848,-100.079"/>
<text text-anchor="middle" x="223.322" y="-110.37" font-family="Times New Roman,serif" font-size="8.00">T</text>
</g>
<!-- create
clone&#45;&gt;reproduce
possible -->
<g id="edge4" class="edge"><title>create
clone&#45;&gt;reproduce
possible</title>
<path fill="none" stroke="#182ba6" d="M227.822,-90.0387C227.822,-100.047 227.822,-112.8 227.822,-124.143"/>
<polygon fill="#182ba6" stroke="#182ba6" points="224.322,-124.451 227.822,-134.451 231.322,-124.451 224.322,-124.451"/>
</g>
<!-- has
signal
found
plant -->
<g id="node4" class="node"><title>has
signal
found
plant</title>
<ellipse fill="none" stroke="#a61835" cx="126.822" cy="-510.416" rx="27" ry="31.2258"/>
<text text-anchor="middle" x="126.822" y="-522.016" font-family="Times New Roman,serif" font-size="8.00">has</text>
<text text-anchor="middle" x="126.822" y="-513.016" font-family="Times New Roman,serif" font-size="8.00">signal</text>
<text text-anchor="middle" x="126.822" y="-504.016" font-family="Times New Roman,serif" font-size="8.00">found</text>
<text text-anchor="middle" x="126.822" y="-495.016" font-family="Times New Roman,serif" font-size="8.00">plant</text>
</g>
<!-- wait -->
<g id="node5" class="node"><title>wait</title>
<ellipse fill="none" stroke="#182ba6" cx="63.8223" cy="-409.555" rx="27" ry="18"/>
<text text-anchor="middle" x="63.8223" y="-407.655" font-family="Times New Roman,serif" font-size="8.00">wait</text>
</g>
<!-- has
signal
found
plant&#45;&gt;wait -->
<g id="edge6" class="edge"><title>has
signal
found
plant&#45;&gt;wait</title>
<path fill="none" stroke="#a61835" d="M111.249,-484.979C101.593,-469.826 89.2277,-450.422 79.5441,-435.226"/>
<polygon fill="#a61835" stroke="#a61835" points="82.2352,-432.936 73.9094,-426.384 76.332,-436.698 82.2352,-432.936"/>
<text text-anchor="middle" x="98.3223" y="-454.904" font-family="Times New Roman,serif" font-size="8.00">F</text>
</g>
<!-- move
towards
target -->
<g id="node6" class="node"><title>move
towards
target</title>
<ellipse fill="none" stroke="#182ba6" cx="181.822" cy="-409.555" rx="30.3115" ry="25"/>
<text text-anchor="middle" x="181.822" y="-416.655" font-family="Times New Roman,serif" font-size="8.00">move</text>
<text text-anchor="middle" x="181.822" y="-407.655" font-family="Times New Roman,serif" font-size="8.00">towards</text>
<text text-anchor="middle" x="181.822" y="-398.655" font-family="Times New Roman,serif" font-size="8.00">target</text>
</g>
<!-- has
signal
found
plant&#45;&gt;move
towards
target -->
<g id="edge5" class="edge"><title>has
signal
found
plant&#45;&gt;move
towards
target</title>
<path fill="none" stroke="#a61835" d="M141.129,-483.7C148.319,-470.777 157.084,-455.021 164.637,-441.446"/>
<polygon fill="#a61835" stroke="#a61835" points="167.834,-442.898 169.637,-432.458 161.717,-439.495 167.834,-442.898"/>
<text text-anchor="middle" x="161.322" y="-454.904" font-family="Times New Roman,serif" font-size="8.00">T</text>
</g>
<!-- signal
exists -->
<g id="node9" class="node"><title>signal
exists</title>
<ellipse fill="none" stroke="#a61835" cx="63.8223" cy="-321.421" rx="27" ry="18.2703"/>
<text text-anchor="middle" x="63.8223" y="-324.021" font-family="Times New Roman,serif" font-size="8.00">signal</text>
<text text-anchor="middle" x="63.8223" y="-315.021" font-family="Times New Roman,serif" font-size="8.00">exists</text>
</g>
<!-- wait&#45;&gt;signal
exists -->
<g id="edge7" class="edge"><title>wait&#45;&gt;signal
exists</title>
<path fill="none" stroke="#182ba6" d="M63.8223,-391.538C63.8223,-379.777 63.8223,-363.866 63.8223,-350.274"/>
<polygon fill="#182ba6" stroke="#182ba6" points="67.3224,-349.995 63.8223,-339.995 60.3224,-349.995 67.3224,-349.995"/>
</g>
<!-- target
nearby -->
<g id="node7" class="node"><title>target
nearby</title>
<ellipse fill="none" stroke="#a61835" cx="191.822" cy="-321.421" rx="28.0702" ry="18.2703"/>
<text text-anchor="middle" x="191.822" y="-324.021" font-family="Times New Roman,serif" font-size="8.00">target</text>
<text text-anchor="middle" x="191.822" y="-315.021" font-family="Times New Roman,serif" font-size="8.00">nearby</text>
</g>
<!-- move
towards
target&#45;&gt;target
nearby -->
<g id="edge8" class="edge"><title>move
towards
target&#45;&gt;target
nearby</title>
<path fill="none" stroke="#182ba6" d="M182.56,-384.74C183,-376.22 183.703,-366.561 184.822,-357.806 185.149,-355.252 185.551,-352.605 185.997,-349.961"/>
<polygon fill="#182ba6" stroke="#182ba6" points="189.465,-350.455 187.858,-339.983 182.583,-349.171 189.465,-350.455"/>
</g>
<!-- target
nearby&#45;&gt;move
towards
target -->
<g id="edge10" class="edge"><title>target
nearby&#45;&gt;move
towards
target</title>
<path fill="none" stroke="#a61835" d="M189.781,-340.004C188.627,-349.941 187.145,-362.705 185.774,-374.519"/>
<polygon fill="#a61835" stroke="#a61835" points="182.285,-374.225 184.608,-384.562 189.238,-375.032 182.285,-374.225"/>
<text text-anchor="middle" x="190.322" y="-360.406" font-family="Times New Roman,serif" font-size="8.00">F</text>
</g>
<!-- eat
nearby
plants -->
<g id="node8" class="node"><title>eat
nearby
plants</title>
<ellipse fill="none" stroke="#182ba6" cx="191.822" cy="-233.288" rx="28.0702" ry="25"/>
<text text-anchor="middle" x="191.822" y="-240.388" font-family="Times New Roman,serif" font-size="8.00">eat</text>
<text text-anchor="middle" x="191.822" y="-231.388" font-family="Times New Roman,serif" font-size="8.00">nearby</text>
<text text-anchor="middle" x="191.822" y="-222.388" font-family="Times New Roman,serif" font-size="8.00">plants</text>
</g>
<!-- target
nearby&#45;&gt;eat
nearby
plants -->
<g id="edge9" class="edge"><title>target
nearby&#45;&gt;eat
nearby
plants</title>
<path fill="none" stroke="#a61835" d="M191.822,-302.991C191.822,-293.03 191.822,-280.192 191.822,-268.314"/>
<polygon fill="#a61835" stroke="#a61835" points="195.322,-268.22 191.822,-258.22 188.322,-268.22 195.322,-268.22"/>
<text text-anchor="middle" x="195.322" y="-278.637" font-family="Times New Roman,serif" font-size="8.00">T</text>
</g>
<!-- eat
nearby
plants&#45;&gt;reproduce
possible -->
<g id="edge11" class="edge"><title>eat
nearby
plants&#45;&gt;reproduce
possible</title>
<path fill="none" stroke="#182ba6" d="M202.042,-210.107C206.283,-200.903 211.237,-190.151 215.663,-180.545"/>
<polygon fill="#182ba6" stroke="#182ba6" points="218.86,-181.969 219.866,-171.422 212.503,-179.04 218.86,-181.969"/>
</g>
<!-- signal
exists&#45;&gt;launch
signal -->
<g id="edge13" class="edge"><title>signal
exists&#45;&gt;launch
signal</title>
<path fill="none" stroke="#a61835" d="M47.618,-336.525C31.3944,-352.292 8.82233,-379.457 8.82233,-408.555 8.82233,-604.278 8.82233,-604.278 8.82233,-604.278 8.82233,-644.083 56.0802,-664.799 90.7823,-674.645"/>
<polygon fill="#a61835" stroke="#a61835" points="90.0718,-678.078 100.634,-677.251 91.8618,-671.31 90.0718,-678.078"/>
<text text-anchor="middle" x="11.3223" y="-508.516" font-family="Times New Roman,serif" font-size="8.00">F</text>
</g>
<!-- signal
exists&#45;&gt;has
signal
found
plant -->
<g id="edge12" class="edge"><title>signal
exists&#45;&gt;has
signal
found
plant</title>
<path fill="none" stroke="#a61835" d="M74.9089,-338.405C82.9047,-350.613 93.3831,-368.124 99.8223,-384.806 110.354,-412.091 117.207,-444.404 121.373,-469.288"/>
<polygon fill="#a61835" stroke="#a61835" points="117.964,-470.138 122.996,-479.461 124.876,-469.034 117.964,-470.138"/>
<text text-anchor="middle" x="118.322" y="-407.655" font-family="Times New Roman,serif" font-size="8.00">T</text>
</g>
<!-- eat
nearby
bots&#45;&gt;has
signal
found
plant -->
<g id="edge14" class="edge"><title>eat
nearby
bots&#45;&gt;has
signal
found
plant</title>
<path fill="none" stroke="#182ba6" d="M126.822,-578.405C126.822,-570.23 126.822,-560.842 126.822,-551.732"/>
<polygon fill="#182ba6" stroke="#182ba6" points="130.322,-551.644 126.822,-541.644 123.322,-551.644 130.322,-551.644"/>
</g>
</g>
</svg>
