<?xml version="1.0" encoding="UTF-8" standalone="no"?>
<!DOCTYPE svg PUBLIC "-//W3C//DTD SVG 1.1//EN"
 "http://www.w3.org/Graphics/SVG/1.1/DTD/svg11.dtd">
<!-- Generated by graphviz version 2.38.0 (20140413.2041)
 -->
<!-- Title: Name: Bot_25
Born: 500, Generation: 1, Age: 68
Peak Energy: 530, Children: 2, Brain Size: 5 Pages: 1 -->
<svg width="267pt" height="439pt"
 viewBox="0.00 0.00 267.00 439.03" xmlns="http://www.w3.org/2000/svg" xmlns:xlink="http://www.w3.org/1999/xlink">
<g id="graph0" class="graph" transform="scale(1 1) rotate(0) translate(4 435.032)">
<title>Name: Bot_25
Born: 500, Generation: 1, Age: 68
Peak Energy: 530, Children: 2, Brain Size: 5</title>
<polygon fill="white" stroke="none" points="-4,4 -4,-435.032 263,-435.032 263,4 -4,4"/>
<text text-anchor="middle" x="129.5" y="-37.8" font-family="Times New Roman,serif" font-size="14.00">Name: Bot_25</text>
<text text-anchor="middle" x="129.5" y="-22.8" font-family="Times New Roman,serif" font-size="14.00">Born: 500, Generation: 1, Age: 68</text>
<text text-anchor="middle" x="129.5" y="-7.8" font-family="Times New Roman,serif" font-size="14.00">Peak Energy: 530, Children: 2, Brain Size: 5</text>
<!-- reproduce
possible -->
<g id="node1" class="node"><title>reproduce
possible</title>
<ellipse fill="none" stroke="#a61835" cx="154.358" cy="-412.647" rx="35.2113" ry="18.2703"/>
<text text-anchor="middle" x="154.358" y="-415.247" font-family="Times New Roman,serif" font-size="8.00">reproduce</text>
<text text-anchor="middle" x="154.358" y="-406.247" font-family="Times New Roman,serif" font-size="8.00">possible</text>
</g>
<!-- create
clone -->
<g id="node2" class="node"><title>create
clone</title>
<ellipse fill="none" stroke="#182ba6" cx="91.3579" cy="-330.877" rx="27" ry="18.2703"/>
<text text-anchor="middle" x="91.3579" y="-333.477" font-family="Times New Roman,serif" font-size="8.00">create</text>
<text text-anchor="middle" x="91.3579" y="-324.477" font-family="Times New Roman,serif" font-size="8.00">clone</text>
</g>
<!-- reproduce
possible&#45;&gt;create
clone -->
<g id="edge1" class="edge"><title>reproduce
possible&#45;&gt;create
clone</title>
<path fill="none" stroke="#a61835" d="M141.304,-395.118C132.198,-383.589 119.917,-368.038 109.811,-355.243"/>
<polygon fill="#a61835" stroke="#a61835" points="112.485,-352.98 103.54,-347.302 106.991,-357.319 112.485,-352.98"/>
<text text-anchor="middle" x="128.858" y="-369.862" font-family="Times New Roman,serif" font-size="8.00">T</text>
</g>
<!-- set
random
target -->
<g id="node4" class="node"><title>set
random
target</title>
<ellipse fill="#dedede" stroke="#182ba6" cx="129.358" cy="-250.744" rx="30.3115" ry="25"/>
<text text-anchor="middle" x="129.358" y="-257.844" font-family="Times New Roman,serif" font-size="8.00">set</text>
<text text-anchor="middle" x="129.358" y="-248.844" font-family="Times New Roman,serif" font-size="8.00">random</text>
<text text-anchor="middle" x="129.358" y="-239.844" font-family="Times New Roman,serif" font-size="8.00">target</text>
</g>
<!-- reproduce
possible&#45;&gt;set
random
target -->
<g id="edge2" class="edge"><title>reproduce
possible&#45;&gt;set
random
target</title>
<path fill="none" stroke="#a61835" d="M151.635,-394.23C147.57,-368.228 139.836,-318.765 134.638,-285.516"/>
<polygon fill="#a61835" stroke="#a61835" points="138.05,-284.68 133.047,-275.341 131.134,-285.761 138.05,-284.68"/>
<text text-anchor="middle" x="145.858" y="-328.977" font-family="Times New Roman,serif" font-size="8.00">F</text>
</g>
<!-- create
clone&#45;&gt;set
random
target -->
<g id="edge3" class="edge"><title>create
clone&#45;&gt;set
random
target</title>
<path fill="none" stroke="#182ba6" d="M99.4167,-313.307C103.687,-304.527 109.075,-293.448 114.1,-283.116"/>
<polygon fill="#182ba6" stroke="#182ba6" points="117.344,-284.448 118.57,-273.925 111.049,-281.387 117.344,-284.448"/>
</g>
<!-- eat
nearby
plants -->
<g id="node3" class="node"><title>eat
nearby
plants</title>
<ellipse fill="none" stroke="#182ba6" cx="166.358" cy="-77.7487" rx="28.0702" ry="25"/>
<text text-anchor="middle" x="166.358" y="-84.8487" font-family="Times New Roman,serif" font-size="8.00">eat</text>
<text text-anchor="middle" x="166.358" y="-75.8487" font-family="Times New Roman,serif" font-size="8.00">nearby</text>
<text text-anchor="middle" x="166.358" y="-66.8487" font-family="Times New Roman,serif" font-size="8.00">plants</text>
</g>
<!-- eat
nearby
plants&#45;&gt;reproduce
possible -->
<g id="edge4" class="edge"><title>eat
nearby
plants&#45;&gt;reproduce
possible</title>
<path fill="none" stroke="#182ba6" d="M175.142,-101.324C180.897,-118.131 187.358,-141.782 187.358,-163.246 187.358,-331.877 187.358,-331.877 187.358,-331.877 187.358,-351.115 179.061,-371.115 170.788,-386.277"/>
<polygon fill="#182ba6" stroke="#182ba6" points="167.695,-384.634 165.715,-395.042 173.754,-388.141 167.695,-384.634"/>
</g>
<!-- move
towards
target -->
<g id="node5" class="node"><title>move
towards
target</title>
<ellipse fill="none" stroke="#182ba6" cx="129.358" cy="-164.246" rx="30.3115" ry="25"/>
<text text-anchor="middle" x="129.358" y="-171.346" font-family="Times New Roman,serif" font-size="8.00">move</text>
<text text-anchor="middle" x="129.358" y="-162.346" font-family="Times New Roman,serif" font-size="8.00">towards</text>
<text text-anchor="middle" x="129.358" y="-153.346" font-family="Times New Roman,serif" font-size="8.00">target</text>
</g>
<!-- set
random
target&#45;&gt;move
towards
target -->
<g id="edge5" class="edge"><title>set
random
target&#45;&gt;move
towards
target</title>
<path fill="none" stroke="#182ba6" d="M129.358,-225.756C129.358,-217.48 129.358,-208.046 129.358,-199.13"/>
<polygon fill="#182ba6" stroke="#182ba6" points="132.858,-199.001 129.358,-189.001 125.858,-199.001 132.858,-199.001"/>
</g>
<!-- move
towards
target&#45;&gt;eat
nearby
plants -->
<g id="edge6" class="edge"><title>move
towards
target&#45;&gt;eat
nearby
plants</title>
<path fill="none" stroke="#182ba6" d="M139.273,-140.602C143.329,-131.341 148.091,-120.465 152.482,-110.436"/>
<polygon fill="#182ba6" stroke="#182ba6" points="155.738,-111.726 156.543,-101.162 149.326,-108.918 155.738,-111.726"/>
</g>
</g>
</svg>
